<svg xmlns="http://www.w3.org/2000/svg" xmlns:xlink="http://www.w3.org/1999/xlink" width="336" zoomAndPan="magnify" viewBox="0 0 252 143.999998" height="192" preserveAspectRatio="xMidYMid meet" version="1.0"><defs><g/></defs><g fill="#6d3c36" fill-opacity="1"><g transform="translate(9.796877, 88.935729)"><g><path d="M 11.90625 0.953125 C 11.625 0.953125 11.320312 0.941406 11 0.921875 C 10.6875 0.910156 10.367188 0.882812 10.046875 0.84375 C 8.835938 0.664062 7.726562 0.382812 6.71875 0 C 5.707031 -0.382812 4.796875 -0.914062 3.984375 -1.59375 C 1.929688 -3.1875 0.640625 -4.976562 0.109375 -6.96875 L 0.109375 -7.015625 C 0.0664062 -7.160156 0.03125 -7.300781 0 -7.4375 C -0.03125 -7.582031 -0.0664062 -7.722656 -0.109375 -7.859375 C -0.316406 -9.773438 -0.226562 -11.726562 0.15625 -13.71875 C 0.375 -14.632812 0.660156 -15.550781 1.015625 -16.46875 C 1.367188 -17.394531 1.789062 -18.300781 2.28125 -19.1875 C 2.570312 -19.644531 2.910156 -20.078125 3.296875 -20.484375 C 3.679688 -20.898438 4.125 -21.335938 4.625 -21.796875 C 4.695312 -21.867188 4.785156 -21.9375 4.890625 -22 C 4.992188 -22.070312 5.097656 -22.128906 5.203125 -22.171875 L 5.265625 -22.21875 C 5.335938 -22.25 5.398438 -22.273438 5.453125 -22.296875 C 5.503906 -22.316406 5.546875 -22.328125 5.578125 -22.328125 C 5.753906 -22.328125 5.914062 -22.253906 6.0625 -22.109375 C 6.34375 -21.929688 6.484375 -21.71875 6.484375 -21.46875 C 6.484375 -21.226562 6.410156 -21.035156 6.265625 -20.890625 C 6.160156 -20.710938 6.019531 -20.570312 5.84375 -20.46875 L 5.796875 -20.40625 C 3.066406 -17.789062 1.679688 -14.351562 1.640625 -10.09375 C 1.640625 -10.0625 1.640625 -10.019531 1.640625 -9.96875 C 1.640625 -9.914062 1.640625 -9.867188 1.640625 -9.828125 C 1.679688 -9.765625 1.703125 -9.695312 1.703125 -9.625 C 1.554688 -7.5 2.316406 -5.65625 3.984375 -4.09375 C 6.179688 -1.96875 8.71875 -0.90625 11.59375 -0.90625 C 12.082031 -0.90625 12.582031 -0.929688 13.09375 -0.984375 C 13.613281 -1.035156 14.140625 -1.132812 14.671875 -1.28125 C 15.835938 -1.59375 16.972656 -2.191406 18.078125 -3.078125 C 18.566406 -3.472656 19.039062 -3.898438 19.5 -4.359375 C 19.96875 -4.816406 20.414062 -5.296875 20.84375 -5.796875 C 21.863281 -6.960938 22.445312 -8.503906 22.59375 -10.421875 C 22.59375 -10.773438 22.59375 -11.132812 22.59375 -11.5 C 22.59375 -11.875 22.554688 -12.238281 22.484375 -12.59375 C 22.453125 -12.875 22.390625 -13.15625 22.296875 -13.4375 C 22.210938 -13.726562 22.082031 -14 21.90625 -14.25 C 21.613281 -14.851562 21.242188 -15.410156 20.796875 -15.921875 C 20.359375 -16.429688 19.875 -16.914062 19.34375 -17.375 L 18.921875 -17.75 C 18.242188 -18.28125 17.550781 -18.867188 16.84375 -19.515625 C 16.28125 -20.003906 15.734375 -20.550781 15.203125 -21.15625 C 14.671875 -21.757812 14.15625 -22.394531 13.65625 -23.0625 C 13.125 -23.882812 12.78125 -24.628906 12.625 -25.296875 C 12.46875 -25.972656 12.507812 -26.648438 12.75 -27.328125 C 13.039062 -28.210938 12.773438 -28.9375 11.953125 -29.5 C 11.921875 -29.570312 11.878906 -29.625 11.828125 -29.65625 C 11.773438 -29.695312 11.710938 -29.734375 11.640625 -29.765625 C 11.492188 -29.867188 11.347656 -29.972656 11.203125 -30.078125 C 11.066406 -30.191406 10.929688 -30.300781 10.796875 -30.40625 C 10.328125 -30.832031 9.878906 -31.226562 9.453125 -31.59375 C 9.035156 -31.96875 8.628906 -32.351562 8.234375 -32.75 C 7.671875 -33.34375 7.25 -33.925781 6.96875 -34.5 C 6.851562 -34.78125 6.796875 -35.097656 6.796875 -35.453125 C 6.734375 -35.703125 6.878906 -35.898438 7.234375 -36.046875 C 7.296875 -36.046875 7.351562 -36.050781 7.40625 -36.0625 C 7.46875 -36.082031 7.53125 -36.09375 7.59375 -36.09375 C 7.882812 -36.09375 8.082031 -36.039062 8.1875 -35.9375 C 8.257812 -35.863281 8.320312 -35.78125 8.375 -35.6875 C 8.425781 -35.601562 8.46875 -35.507812 8.5 -35.40625 C 8.644531 -35.1875 8.769531 -35.023438 8.875 -34.921875 C 10.082031 -33.296875 11.585938 -31.953125 13.390625 -30.890625 C 13.640625 -30.742188 13.925781 -30.671875 14.25 -30.671875 C 14.632812 -30.671875 14.9375 -30.757812 15.15625 -30.9375 C 15.21875 -31.007812 15.285156 -31.0625 15.359375 -31.09375 C 15.429688 -31.132812 15.484375 -31.171875 15.515625 -31.203125 C 15.941406 -31.453125 16.382812 -31.769531 16.84375 -32.15625 C 19.332031 -34.101562 22.3125 -35.488281 25.78125 -36.3125 C 26.164062 -36.375 26.570312 -36.421875 27 -36.453125 C 27.425781 -36.492188 27.867188 -36.515625 28.328125 -36.515625 C 28.609375 -36.515625 28.882812 -36.515625 29.15625 -36.515625 C 29.425781 -36.515625 29.71875 -36.5 30.03125 -36.46875 C 30.28125 -36.425781 30.53125 -36.367188 30.78125 -36.296875 C 31.03125 -36.234375 31.273438 -36.164062 31.515625 -36.09375 C 31.835938 -35.945312 32.125 -35.773438 32.375 -35.578125 C 32.625 -35.390625 32.816406 -35.15625 32.953125 -34.875 C 33.203125 -34.34375 33.222656 -33.738281 33.015625 -33.0625 C 32.691406 -32.101562 32.191406 -31.289062 31.515625 -30.625 C 29.285156 -28.488281 26.96875 -27.242188 24.5625 -26.890625 C 24.238281 -26.859375 23.914062 -26.820312 23.59375 -26.78125 C 23.28125 -26.75 22.945312 -26.71875 22.59375 -26.6875 C 22.445312 -26.6875 22.296875 -26.6875 22.140625 -26.6875 C 21.984375 -26.6875 21.832031 -26.664062 21.6875 -26.625 C 20.976562 -26.664062 20.335938 -26.710938 19.765625 -26.765625 C 19.203125 -26.816406 18.671875 -26.914062 18.171875 -27.0625 C 17.890625 -27.125 17.609375 -27.191406 17.328125 -27.265625 C 17.046875 -27.335938 16.765625 -27.390625 16.484375 -27.421875 C 16.441406 -27.460938 16.394531 -27.484375 16.34375 -27.484375 C 16.289062 -27.484375 16.226562 -27.5 16.15625 -27.53125 C 16.125 -27.53125 16.085938 -27.53125 16.046875 -27.53125 C 16.015625 -27.53125 15.984375 -27.53125 15.953125 -27.53125 C 15.484375 -27.53125 15.09375 -27.335938 14.78125 -26.953125 C 14.5 -26.492188 14.425781 -26.066406 14.5625 -25.671875 C 14.632812 -25.460938 14.707031 -25.242188 14.78125 -25.015625 C 14.851562 -24.785156 14.957031 -24.5625 15.09375 -24.34375 C 15.769531 -23.175781 16.742188 -22.039062 18.015625 -20.9375 C 18.265625 -20.726562 18.515625 -20.515625 18.765625 -20.296875 C 19.015625 -20.085938 19.265625 -19.878906 19.515625 -19.671875 C 19.691406 -19.523438 19.867188 -19.390625 20.046875 -19.265625 C 20.222656 -19.140625 20.378906 -18.988281 20.515625 -18.8125 C 20.941406 -18.457031 21.332031 -18.082031 21.6875 -17.6875 C 22.039062 -17.300781 22.359375 -16.914062 22.640625 -16.53125 C 23.992188 -14.96875 24.613281 -12.96875 24.5 -10.53125 C 24.320312 -8.289062 23.664062 -6.410156 22.53125 -4.890625 C 21.863281 -4.035156 21.148438 -3.265625 20.390625 -2.578125 C 19.628906 -1.890625 18.820312 -1.28125 17.96875 -0.75 C 16.15625 0.382812 14.132812 0.953125 11.90625 0.953125 Z M 21.84375 -28.546875 C 21.914062 -28.546875 21.957031 -28.546875 21.96875 -28.546875 C 21.988281 -28.546875 22.019531 -28.546875 22.0625 -28.546875 C 22.132812 -28.546875 22.1875 -28.546875 22.21875 -28.546875 C 22.25 -28.546875 22.285156 -28.546875 22.328125 -28.546875 C 25.304688 -28.546875 27.925781 -29.679688 30.1875 -31.953125 C 30.257812 -32.015625 30.320312 -32.085938 30.375 -32.171875 C 30.425781 -32.265625 30.472656 -32.332031 30.515625 -32.375 C 30.515625 -32.375 30.519531 -32.378906 30.53125 -32.390625 C 30.550781 -32.410156 30.5625 -32.441406 30.5625 -32.484375 C 30.8125 -32.796875 30.847656 -33.203125 30.671875 -33.703125 C 30.523438 -34.160156 30.242188 -34.441406 29.828125 -34.546875 C 29.785156 -34.546875 29.765625 -34.546875 29.765625 -34.546875 C 29.765625 -34.546875 29.75 -34.546875 29.71875 -34.546875 C 29.5 -34.617188 29.335938 -34.65625 29.234375 -34.65625 C 29.085938 -34.695312 28.953125 -34.71875 28.828125 -34.71875 C 28.710938 -34.71875 28.582031 -34.71875 28.4375 -34.71875 C 27.625 -34.71875 26.738281 -34.609375 25.78125 -34.390625 C 23.65625 -33.929688 21.390625 -32.941406 18.984375 -31.421875 C 18.941406 -31.378906 18.859375 -31.3125 18.734375 -31.21875 C 18.609375 -31.132812 18.507812 -31.003906 18.4375 -30.828125 C 18.4375 -30.828125 18.4375 -30.816406 18.4375 -30.796875 C 18.4375 -30.785156 18.4375 -30.78125 18.4375 -30.78125 C 18.40625 -30.632812 18.363281 -30.488281 18.3125 -30.34375 C 18.257812 -30.207031 18.234375 -30.050781 18.234375 -29.875 C 18.234375 -29.59375 18.347656 -29.363281 18.578125 -29.1875 C 18.804688 -29.007812 19.03125 -28.882812 19.25 -28.8125 C 19.53125 -28.769531 19.8125 -28.722656 20.09375 -28.671875 C 20.375 -28.617188 20.585938 -28.578125 20.734375 -28.546875 C 20.804688 -28.546875 20.847656 -28.546875 20.859375 -28.546875 C 20.878906 -28.546875 20.90625 -28.546875 20.9375 -28.546875 C 20.976562 -28.546875 21.003906 -28.546875 21.015625 -28.546875 C 21.035156 -28.546875 21.046875 -28.546875 21.046875 -28.546875 C 21.191406 -28.546875 21.316406 -28.546875 21.421875 -28.546875 C 21.523438 -28.546875 21.613281 -28.546875 21.6875 -28.546875 C 21.71875 -28.546875 21.742188 -28.546875 21.765625 -28.546875 C 21.785156 -28.546875 21.8125 -28.546875 21.84375 -28.546875 Z M 21.84375 -28.546875 "/></g></g></g><g fill="#6d3c36" fill-opacity="1"><g transform="translate(37.963497, 88.935729)"><g><path d="M 1.375 0.90625 C 0.8125 0.90625 0.273438 0.726562 -0.234375 0.375 C -0.753906 0.0195312 -1.101562 -0.40625 -1.28125 -0.90625 C -1.457031 -1.289062 -1.507812 -1.679688 -1.4375 -2.078125 C -1.332031 -3.171875 -0.957031 -4.300781 -0.3125 -5.46875 C -0.207031 -5.644531 -0.101562 -5.835938 0 -6.046875 C 0.101562 -6.265625 0.207031 -6.460938 0.3125 -6.640625 C 0.601562 -7.210938 0.90625 -7.765625 1.21875 -8.296875 C 1.394531 -8.578125 1.582031 -8.867188 1.78125 -9.171875 C 1.976562 -9.472656 2.164062 -9.765625 2.34375 -10.046875 C 2.40625 -10.191406 2.484375 -10.316406 2.578125 -10.421875 C 2.671875 -10.523438 2.75 -10.648438 2.8125 -10.796875 C 2.851562 -10.859375 2.941406 -11 3.078125 -11.21875 C 3.117188 -11.25 3.175781 -11.335938 3.25 -11.484375 C 3.425781 -11.691406 3.441406 -11.957031 3.296875 -12.28125 C 3.117188 -12.5625 2.890625 -12.703125 2.609375 -12.703125 C 2.566406 -12.703125 2.523438 -12.703125 2.484375 -12.703125 C 2.453125 -12.703125 2.40625 -12.703125 2.34375 -12.703125 C 2.226562 -12.734375 2.082031 -12.75 1.90625 -12.75 C 1.875 -12.75 1.847656 -12.75 1.828125 -12.75 C 1.816406 -12.75 1.789062 -12.75 1.75 -12.75 C 1.75 -12.75 1.738281 -12.75 1.71875 -12.75 C 1.707031 -12.75 1.703125 -12.75 1.703125 -12.75 C 1.128906 -12.75 0.84375 -13 0.84375 -13.5 C 0.84375 -13.75 0.914062 -13.925781 1.0625 -14.03125 C 1.238281 -14.207031 1.453125 -14.296875 1.703125 -14.296875 C 2.304688 -14.296875 2.878906 -14.304688 3.421875 -14.328125 C 3.972656 -14.347656 4.515625 -14.375 5.046875 -14.40625 C 5.398438 -14.40625 5.703125 -14.566406 5.953125 -14.890625 C 6.128906 -15.066406 6.285156 -15.257812 6.421875 -15.46875 C 6.566406 -15.675781 6.710938 -15.867188 6.859375 -16.046875 C 6.992188 -16.265625 7.140625 -16.476562 7.296875 -16.6875 C 7.460938 -16.90625 7.617188 -17.117188 7.765625 -17.328125 C 8.148438 -17.828125 8.546875 -18.34375 8.953125 -18.875 C 9.359375 -19.40625 9.773438 -19.9375 10.203125 -20.46875 C 10.378906 -20.644531 10.546875 -20.835938 10.703125 -21.046875 C 10.867188 -21.265625 11.019531 -21.460938 11.15625 -21.640625 C 11.332031 -21.847656 11.519531 -22.054688 11.71875 -22.265625 C 11.914062 -22.484375 12.101562 -22.71875 12.28125 -22.96875 C 12.457031 -23.175781 12.625 -23.382812 12.78125 -23.59375 C 12.9375 -23.8125 13.085938 -24.023438 13.234375 -24.234375 C 13.378906 -24.410156 13.515625 -24.597656 13.640625 -24.796875 C 13.765625 -24.992188 13.894531 -25.160156 14.03125 -25.296875 C 14.207031 -25.515625 14.382812 -25.625 14.5625 -25.625 C 14.664062 -25.625 14.753906 -25.601562 14.828125 -25.5625 C 15.109375 -25.53125 15.304688 -25.335938 15.421875 -24.984375 C 15.421875 -24.910156 15.410156 -24.820312 15.390625 -24.71875 C 15.367188 -24.613281 15.304688 -24.472656 15.203125 -24.296875 C 15.054688 -24.117188 14.921875 -23.941406 14.796875 -23.765625 C 14.679688 -23.585938 14.550781 -23.410156 14.40625 -23.234375 C 14.257812 -23.015625 14.113281 -22.796875 13.96875 -22.578125 C 13.832031 -22.367188 13.675781 -22.175781 13.5 -22 C 13.351562 -21.789062 13.203125 -21.585938 13.046875 -21.390625 C 12.890625 -21.203125 12.722656 -21.019531 12.546875 -20.84375 C 12.503906 -20.769531 12.429688 -20.679688 12.328125 -20.578125 C 12.191406 -20.429688 12.050781 -20.269531 11.90625 -20.09375 C 11.757812 -19.914062 11.617188 -19.738281 11.484375 -19.5625 C 11.234375 -19.238281 10.96875 -18.910156 10.6875 -18.578125 C 10.40625 -18.242188 10.117188 -17.898438 9.828125 -17.546875 C 9.515625 -17.191406 9.25 -16.816406 9.03125 -16.421875 C 8.894531 -16.210938 8.789062 -16.070312 8.71875 -16 C 8.613281 -15.789062 8.5625 -15.628906 8.5625 -15.515625 C 8.5625 -15.515625 8.5625 -15.5 8.5625 -15.46875 C 8.519531 -15.257812 8.570312 -15.046875 8.71875 -14.828125 C 8.894531 -14.648438 9.085938 -14.5625 9.296875 -14.5625 C 9.410156 -14.53125 9.570312 -14.515625 9.78125 -14.515625 C 9.925781 -14.515625 10.054688 -14.515625 10.171875 -14.515625 C 10.296875 -14.515625 10.429688 -14.515625 10.578125 -14.515625 C 10.648438 -14.515625 10.703125 -14.515625 10.734375 -14.515625 C 10.773438 -14.515625 10.8125 -14.515625 10.84375 -14.515625 C 11.226562 -14.515625 11.613281 -14.519531 12 -14.53125 C 12.394531 -14.550781 12.769531 -14.582031 13.125 -14.625 L 13.5625 -14.625 C 13.664062 -14.625 13.757812 -14.628906 13.84375 -14.640625 C 13.9375 -14.660156 14.035156 -14.671875 14.140625 -14.671875 C 14.171875 -14.671875 14.195312 -14.671875 14.21875 -14.671875 C 14.238281 -14.671875 14.265625 -14.671875 14.296875 -14.671875 C 14.753906 -14.671875 15.019531 -14.441406 15.09375 -13.984375 C 15.132812 -13.878906 15.082031 -13.679688 14.9375 -13.390625 C 14.90625 -13.359375 14.84375 -13.316406 14.75 -13.265625 C 14.664062 -13.210938 14.550781 -13.164062 14.40625 -13.125 C 13.945312 -13.09375 13.484375 -13.078125 13.015625 -13.078125 C 12.554688 -13.078125 12.097656 -13.054688 11.640625 -13.015625 C 11.492188 -13.015625 11.359375 -13.015625 11.234375 -13.015625 C 11.117188 -13.015625 10.988281 -13.015625 10.84375 -13.015625 C 10.59375 -12.984375 10.332031 -12.96875 10.0625 -12.96875 C 9.800781 -12.96875 9.53125 -12.96875 9.25 -12.96875 C 8.894531 -12.9375 8.539062 -12.921875 8.1875 -12.921875 C 7.832031 -12.921875 7.457031 -12.921875 7.0625 -12.921875 C 6.925781 -12.878906 6.757812 -12.832031 6.5625 -12.78125 C 6.363281 -12.726562 6.210938 -12.613281 6.109375 -12.4375 L 6.0625 -12.4375 C 5.707031 -12.007812 5.359375 -11.570312 5.015625 -11.125 C 4.679688 -10.6875 4.335938 -10.238281 3.984375 -9.78125 C 3.554688 -9.21875 3.179688 -8.648438 2.859375 -8.078125 C 2.546875 -7.515625 2.25 -6.984375 1.96875 -6.484375 C 1.925781 -6.410156 1.890625 -6.328125 1.859375 -6.234375 C 1.828125 -6.148438 1.773438 -6.070312 1.703125 -6 C 1.554688 -5.6875 1.394531 -5.367188 1.21875 -5.046875 C 1.039062 -4.734375 0.863281 -4.414062 0.6875 -4.09375 C 0.550781 -3.769531 0.425781 -3.414062 0.3125 -3.03125 C 0.28125 -3 0.265625 -2.953125 0.265625 -2.890625 C 0.265625 -2.835938 0.25 -2.796875 0.21875 -2.765625 C 0.175781 -2.660156 0.144531 -2.550781 0.125 -2.4375 C 0.113281 -2.332031 0.109375 -2.226562 0.109375 -2.125 C 0.109375 -2.050781 0.125 -1.898438 0.15625 -1.671875 C 0.195312 -1.441406 0.285156 -1.238281 0.421875 -1.0625 C 0.671875 -0.8125 1.007812 -0.6875 1.4375 -0.6875 L 1.484375 -0.6875 C 2.617188 -0.6875 3.648438 -0.972656 4.578125 -1.546875 C 5.066406 -1.859375 5.550781 -2.191406 6.03125 -2.546875 C 6.507812 -2.898438 6.976562 -3.273438 7.4375 -3.671875 C 8.925781 -4.835938 10.113281 -6.078125 11 -7.390625 C 11.175781 -7.597656 11.351562 -7.800781 11.53125 -8 C 11.707031 -8.195312 11.90625 -8.398438 12.125 -8.609375 C 12.226562 -8.785156 12.382812 -8.875 12.59375 -8.875 C 12.738281 -8.875 12.914062 -8.804688 13.125 -8.671875 C 13.476562 -8.347656 13.515625 -7.988281 13.234375 -7.59375 C 13.203125 -7.53125 13.113281 -7.425781 12.96875 -7.28125 C 12.9375 -7.25 12.910156 -7.210938 12.890625 -7.171875 C 12.867188 -7.140625 12.84375 -7.101562 12.8125 -7.0625 C 12.738281 -6.957031 12.648438 -6.851562 12.546875 -6.75 C 12.441406 -6.644531 12.351562 -6.539062 12.28125 -6.4375 C 12.0625 -6.144531 11.835938 -5.859375 11.609375 -5.578125 C 11.378906 -5.296875 11.160156 -5.015625 10.953125 -4.734375 C 10.847656 -4.660156 10.6875 -4.519531 10.46875 -4.3125 C 10.4375 -4.269531 10.382812 -4.222656 10.3125 -4.171875 C 10.238281 -4.117188 10.164062 -4.054688 10.09375 -3.984375 C 10.03125 -3.878906 9.925781 -3.753906 9.78125 -3.609375 C 9.75 -3.578125 9.695312 -3.523438 9.625 -3.453125 C 9.550781 -3.378906 9.476562 -3.3125 9.40625 -3.25 C 9.300781 -3.132812 9.175781 -3.015625 9.03125 -2.890625 C 8.894531 -2.773438 8.753906 -2.660156 8.609375 -2.546875 C 8.398438 -2.410156 8.1875 -2.257812 7.96875 -2.09375 C 7.757812 -1.9375 7.546875 -1.769531 7.328125 -1.59375 C 6.972656 -1.34375 6.617188 -1.082031 6.265625 -0.8125 C 5.910156 -0.550781 5.539062 -0.316406 5.15625 -0.109375 C 4.832031 0.0664062 4.519531 0.21875 4.21875 0.34375 C 3.925781 0.46875 3.632812 0.566406 3.34375 0.640625 L 3.296875 0.640625 C 3.015625 0.671875 2.738281 0.710938 2.46875 0.765625 C 2.207031 0.816406 1.929688 0.863281 1.640625 0.90625 C 1.609375 0.90625 1.570312 0.90625 1.53125 0.90625 C 1.5 0.90625 1.445312 0.90625 1.375 0.90625 Z M 1.375 0.90625 "/></g></g></g><g fill="#6d3c36" fill-opacity="1"><g transform="translate(48.804988, 88.935729)"><g><path d="M 0.21875 0.421875 C 0.144531 0.421875 0.0546875 0.421875 -0.046875 0.421875 C -0.160156 0.421875 -0.25 0.40625 -0.3125 0.375 C -1.09375 0.226562 -1.625 -0.109375 -1.90625 -0.640625 C -2.050781 -0.953125 -2.125 -1.273438 -2.125 -1.609375 C -2.125 -1.953125 -2.070312 -2.351562 -1.96875 -2.8125 C -1.789062 -3.769531 -1.472656 -4.675781 -1.015625 -5.53125 C -0.765625 -5.988281 -0.492188 -6.460938 -0.203125 -6.953125 C 0.078125 -7.453125 0.394531 -7.988281 0.75 -8.5625 C 1.03125 -9.050781 1.335938 -9.546875 1.671875 -10.046875 C 2.003906 -10.546875 2.382812 -11.09375 2.8125 -11.6875 C 2.925781 -11.832031 3.035156 -11.972656 3.140625 -12.109375 C 3.242188 -12.253906 3.367188 -12.398438 3.515625 -12.546875 C 3.578125 -12.617188 3.644531 -12.695312 3.71875 -12.78125 C 3.789062 -12.875 3.863281 -12.972656 3.9375 -13.078125 C 4.113281 -13.253906 4.269531 -13.4375 4.40625 -13.625 C 4.550781 -13.820312 4.695312 -14.007812 4.84375 -14.1875 C 5.082031 -14.4375 5.3125 -14.5625 5.53125 -14.5625 C 5.707031 -14.5625 5.863281 -14.492188 6 -14.359375 C 6.21875 -14.210938 6.316406 -14.023438 6.296875 -13.796875 C 6.273438 -13.566406 6.195312 -13.363281 6.0625 -13.1875 L 5.953125 -13.078125 C 5.566406 -12.617188 5.175781 -12.140625 4.78125 -11.640625 C 4.394531 -11.140625 4.003906 -10.625 3.609375 -10.09375 C 3.191406 -9.53125 2.800781 -8.984375 2.4375 -8.453125 C 2.082031 -7.921875 1.765625 -7.390625 1.484375 -6.859375 C 1.171875 -6.359375 0.890625 -5.84375 0.640625 -5.3125 C 0.390625 -4.78125 0.140625 -4.269531 -0.109375 -3.78125 C -0.179688 -3.601562 -0.242188 -3.414062 -0.296875 -3.21875 C -0.347656 -3.019531 -0.410156 -2.832031 -0.484375 -2.65625 C -0.484375 -2.550781 -0.515625 -2.390625 -0.578125 -2.171875 C -0.648438 -1.929688 -0.597656 -1.703125 -0.421875 -1.484375 C -0.242188 -1.273438 -0.03125 -1.171875 0.21875 -1.171875 C 0.21875 -1.171875 0.222656 -1.171875 0.234375 -1.171875 C 0.253906 -1.171875 0.265625 -1.171875 0.265625 -1.171875 C 0.296875 -1.203125 0.347656 -1.21875 0.421875 -1.21875 C 0.492188 -1.21875 0.566406 -1.21875 0.640625 -1.21875 C 0.710938 -1.21875 0.800781 -1.238281 0.90625 -1.28125 C 1.289062 -1.414062 1.703125 -1.585938 2.140625 -1.796875 C 2.585938 -2.015625 2.988281 -2.300781 3.34375 -2.65625 C 3.414062 -2.726562 3.503906 -2.804688 3.609375 -2.890625 C 3.722656 -2.984375 3.832031 -3.066406 3.9375 -3.140625 C 4.039062 -3.242188 4.15625 -3.347656 4.28125 -3.453125 C 4.40625 -3.554688 4.535156 -3.664062 4.671875 -3.78125 C 5.273438 -4.375 5.832031 -4.9375 6.34375 -5.46875 C 6.863281 -6 7.367188 -6.515625 7.859375 -7.015625 C 8.046875 -7.222656 8.257812 -7.328125 8.5 -7.328125 C 8.675781 -7.328125 8.835938 -7.273438 8.984375 -7.171875 C 9.160156 -6.992188 9.25 -6.800781 9.25 -6.59375 C 9.320312 -6.445312 9.269531 -6.269531 9.09375 -6.0625 C 8.519531 -5.488281 7.992188 -4.945312 7.515625 -4.4375 C 7.035156 -3.925781 6.566406 -3.457031 6.109375 -3.03125 C 5.753906 -2.675781 5.375 -2.320312 4.96875 -1.96875 C 4.5625 -1.613281 4.179688 -1.296875 3.828125 -1.015625 C 3.617188 -0.867188 3.378906 -0.710938 3.109375 -0.546875 C 2.847656 -0.390625 2.519531 -0.242188 2.125 -0.109375 C 2.019531 -0.0664062 1.910156 -0.03125 1.796875 0 C 1.691406 0.03125 1.585938 0.0664062 1.484375 0.109375 C 1.410156 0.140625 1.320312 0.164062 1.21875 0.1875 C 1.113281 0.207031 1.007812 0.25 0.90625 0.3125 C 0.800781 0.351562 0.691406 0.378906 0.578125 0.390625 C 0.472656 0.410156 0.351562 0.421875 0.21875 0.421875 Z M 9.671875 -19.34375 C 9.242188 -19.34375 8.941406 -19.453125 8.765625 -19.671875 C 8.453125 -19.984375 8.472656 -20.351562 8.828125 -20.78125 C 9.179688 -21.207031 9.625 -21.546875 10.15625 -21.796875 C 10.257812 -21.828125 10.351562 -21.851562 10.4375 -21.875 C 10.53125 -21.894531 10.628906 -21.90625 10.734375 -21.90625 C 10.953125 -21.90625 11.179688 -21.847656 11.421875 -21.734375 C 11.492188 -21.703125 11.566406 -21.640625 11.640625 -21.546875 C 11.710938 -21.460938 11.765625 -21.332031 11.796875 -21.15625 C 11.765625 -21.125 11.75 -21.070312 11.75 -21 C 11.75 -20.894531 11.710938 -20.804688 11.640625 -20.734375 C 11.492188 -20.554688 11.34375 -20.382812 11.1875 -20.21875 C 11.03125 -20.0625 10.878906 -19.914062 10.734375 -19.78125 C 10.703125 -19.738281 10.640625 -19.695312 10.546875 -19.65625 C 10.460938 -19.625 10.367188 -19.578125 10.265625 -19.515625 C 10.222656 -19.515625 10.191406 -19.503906 10.171875 -19.484375 C 10.160156 -19.460938 10.132812 -19.453125 10.09375 -19.453125 C 10.03125 -19.378906 9.890625 -19.34375 9.671875 -19.34375 Z M 9.671875 -19.34375 "/></g></g></g><g fill="#6d3c36" fill-opacity="1"><g transform="translate(56.88296, 88.935729)"><g><path d="M 1.109375 0.109375 C 0.972656 0.109375 0.84375 0.0976562 0.71875 0.078125 C 0.59375 0.0546875 0.457031 0.03125 0.3125 0 C -0.675781 -0.320312 -1.171875 -0.992188 -1.171875 -2.015625 C -1.171875 -2.515625 -1.132812 -3.019531 -1.0625 -3.53125 C -0.988281 -4.050781 -0.898438 -4.539062 -0.796875 -5 C -0.585938 -5.988281 -0.21875 -7.015625 0.3125 -8.078125 C 0.601562 -8.648438 0.929688 -9.289062 1.296875 -10 C 1.671875 -10.707031 2.035156 -11.429688 2.390625 -12.171875 C 2.421875 -12.242188 2.453125 -12.304688 2.484375 -12.359375 C 2.523438 -12.410156 2.566406 -12.453125 2.609375 -12.484375 C 2.679688 -12.523438 2.734375 -12.578125 2.765625 -12.640625 C 2.796875 -12.710938 2.832031 -12.769531 2.875 -12.8125 C 2.945312 -12.914062 3.023438 -13.03125 3.109375 -13.15625 C 3.203125 -13.28125 3.28125 -13.394531 3.34375 -13.5 C 3.457031 -13.675781 3.566406 -13.863281 3.671875 -14.0625 C 3.773438 -14.257812 3.878906 -14.425781 3.984375 -14.5625 C 4.128906 -14.738281 4.269531 -14.929688 4.40625 -15.140625 C 4.550781 -15.359375 4.695312 -15.554688 4.84375 -15.734375 C 4.90625 -15.835938 4.976562 -15.929688 5.0625 -16.015625 C 5.15625 -16.109375 5.222656 -16.207031 5.265625 -16.3125 C 5.441406 -16.5625 5.617188 -16.800781 5.796875 -17.03125 C 5.972656 -17.257812 6.148438 -17.5 6.328125 -17.75 C 6.679688 -18.25 7.023438 -18.726562 7.359375 -19.1875 C 7.691406 -19.644531 8.039062 -20.109375 8.40625 -20.578125 C 8.507812 -20.753906 8.613281 -20.898438 8.71875 -21.015625 C 8.820312 -21.140625 8.925781 -21.273438 9.03125 -21.421875 C 9.175781 -21.628906 9.316406 -21.832031 9.453125 -22.03125 C 9.597656 -22.226562 9.742188 -22.429688 9.890625 -22.640625 C 10.140625 -22.921875 10.367188 -23.257812 10.578125 -23.65625 C 10.722656 -23.832031 10.863281 -24.035156 11 -24.265625 C 11.144531 -24.492188 11.285156 -24.695312 11.421875 -24.875 C 11.597656 -25.125 11.773438 -25.351562 11.953125 -25.5625 C 12.128906 -25.78125 12.328125 -25.992188 12.546875 -26.203125 C 12.617188 -26.304688 12.6875 -26.398438 12.75 -26.484375 C 12.820312 -26.578125 12.894531 -26.660156 12.96875 -26.734375 L 13.125 -27 C 13.269531 -27.175781 13.410156 -27.34375 13.546875 -27.5 C 13.691406 -27.664062 13.835938 -27.816406 13.984375 -27.953125 C 14.335938 -28.347656 14.71875 -28.75 15.125 -29.15625 C 15.53125 -29.5625 15.984375 -29.960938 16.484375 -30.359375 C 16.585938 -30.460938 16.832031 -30.515625 17.21875 -30.515625 C 17.644531 -30.515625 17.910156 -30.460938 18.015625 -30.359375 C 18.410156 -30.003906 18.660156 -29.628906 18.765625 -29.234375 C 18.867188 -28.703125 18.867188 -28.207031 18.765625 -27.75 C 18.617188 -26.96875 18.382812 -26.171875 18.0625 -25.359375 C 17.75 -24.546875 17.328125 -23.625 16.796875 -22.59375 C 16.546875 -22.0625 16.242188 -21.546875 15.890625 -21.046875 C 15.535156 -20.554688 15.164062 -20.0625 14.78125 -19.5625 C 14.632812 -19.414062 14.546875 -19.3125 14.515625 -19.25 C 14.085938 -18.675781 13.648438 -18.125 13.203125 -17.59375 C 12.765625 -17.0625 12.316406 -16.515625 11.859375 -15.953125 L 11.59375 -15.6875 C 11.519531 -15.570312 11.4375 -15.46875 11.34375 -15.375 C 11.257812 -15.289062 11.179688 -15.21875 11.109375 -15.15625 C 11.078125 -15.113281 11.023438 -15.054688 10.953125 -14.984375 C 10.878906 -14.921875 10.804688 -14.851562 10.734375 -14.78125 C 10.660156 -14.707031 10.570312 -14.617188 10.46875 -14.515625 C 10.363281 -14.410156 10.273438 -14.300781 10.203125 -14.1875 C 10.023438 -14.007812 9.835938 -13.820312 9.640625 -13.625 C 9.453125 -13.4375 9.269531 -13.253906 9.09375 -13.078125 C 8.738281 -12.722656 8.363281 -12.367188 7.96875 -12.015625 C 7.582031 -11.660156 7.191406 -11.320312 6.796875 -11 C 6.441406 -10.6875 6.0625 -10.378906 5.65625 -10.078125 C 5.25 -9.773438 4.832031 -9.484375 4.40625 -9.203125 C 4.164062 -9.054688 3.910156 -8.910156 3.640625 -8.765625 C 3.378906 -8.628906 3.101562 -8.472656 2.8125 -8.296875 L 2.71875 -8.234375 C 2.53125 -8.171875 2.332031 -8.046875 2.125 -7.859375 C 1.914062 -7.679688 1.738281 -7.4375 1.59375 -7.125 C 1.5625 -7.050781 1.523438 -6.96875 1.484375 -6.875 C 1.453125 -6.789062 1.414062 -6.710938 1.375 -6.640625 C 1.238281 -6.210938 1.085938 -5.769531 0.921875 -5.3125 C 0.765625 -4.851562 0.648438 -4.375 0.578125 -3.875 C 0.578125 -3.769531 0.546875 -3.613281 0.484375 -3.40625 C 0.484375 -3.363281 0.472656 -3.296875 0.453125 -3.203125 C 0.429688 -3.117188 0.421875 -3.046875 0.421875 -2.984375 C 0.390625 -2.867188 0.375 -2.722656 0.375 -2.546875 C 0.375 -2.515625 0.375 -2.476562 0.375 -2.4375 C 0.375 -2.40625 0.375 -2.375 0.375 -2.34375 C 0.375 -2.050781 0.460938 -1.835938 0.640625 -1.703125 C 0.773438 -1.554688 0.953125 -1.484375 1.171875 -1.484375 C 1.203125 -1.484375 1.226562 -1.484375 1.25 -1.484375 C 1.269531 -1.484375 1.296875 -1.484375 1.328125 -1.484375 C 1.828125 -1.585938 2.253906 -1.738281 2.609375 -1.9375 C 2.960938 -2.132812 3.242188 -2.300781 3.453125 -2.4375 C 3.878906 -2.726562 4.273438 -3.023438 4.640625 -3.328125 C 5.015625 -3.628906 5.378906 -3.921875 5.734375 -4.203125 C 6.085938 -4.484375 6.394531 -4.75 6.65625 -5 C 6.925781 -5.25 7.171875 -5.492188 7.390625 -5.734375 C 7.492188 -5.773438 7.5625 -5.847656 7.59375 -5.953125 C 7.84375 -6.160156 8.082031 -6.390625 8.3125 -6.640625 C 8.550781 -6.890625 8.757812 -7.175781 8.9375 -7.5 C 9.039062 -7.675781 9.234375 -7.867188 9.515625 -8.078125 C 9.617188 -8.179688 9.707031 -8.253906 9.78125 -8.296875 C 9.8125 -8.367188 9.914062 -8.457031 10.09375 -8.5625 C 10.164062 -8.632812 10.222656 -8.671875 10.265625 -8.671875 C 10.398438 -8.804688 10.554688 -8.875 10.734375 -8.875 C 10.953125 -8.875 11.148438 -8.785156 11.328125 -8.609375 C 11.640625 -8.253906 11.617188 -7.898438 11.265625 -7.546875 C 11.128906 -7.398438 11 -7.253906 10.875 -7.109375 C 10.75 -6.972656 10.613281 -6.835938 10.46875 -6.703125 C 10.21875 -6.378906 9.941406 -6.066406 9.640625 -5.765625 C 9.347656 -5.460938 9.054688 -5.171875 8.765625 -4.890625 L 8.453125 -4.625 C 7.878906 -4.0625 7.300781 -3.519531 6.71875 -3 C 6.132812 -2.488281 5.523438 -2.003906 4.890625 -1.546875 C 4.109375 -0.972656 3.238281 -0.507812 2.28125 -0.15625 C 1.851562 0.0195312 1.460938 0.109375 1.109375 0.109375 Z M 15.890625 -27.421875 C 15.679688 -27.421875 15.488281 -27.332031 15.3125 -27.15625 C 15.238281 -27.09375 15.203125 -27.039062 15.203125 -27 C 15.171875 -26.96875 15.125 -26.925781 15.0625 -26.875 C 15.007812 -26.820312 14.953125 -26.757812 14.890625 -26.6875 C 14.847656 -26.644531 14.804688 -26.597656 14.765625 -26.546875 C 14.734375 -26.492188 14.6875 -26.429688 14.625 -26.359375 C 14.582031 -26.296875 14.535156 -26.21875 14.484375 -26.125 C 14.429688 -26.039062 14.367188 -25.960938 14.296875 -25.890625 C 13.941406 -25.535156 13.625 -25.171875 13.34375 -24.796875 C 13.0625 -24.421875 12.773438 -24.039062 12.484375 -23.65625 L 12.4375 -23.65625 C 12.289062 -23.4375 12.15625 -23.226562 12.03125 -23.03125 C 11.914062 -22.84375 11.785156 -22.660156 11.640625 -22.484375 C 11.460938 -22.234375 11.285156 -21.972656 11.109375 -21.703125 C 10.929688 -21.441406 10.753906 -21.171875 10.578125 -20.890625 C 10.253906 -20.429688 9.90625 -19.960938 9.53125 -19.484375 C 9.164062 -19.003906 8.789062 -18.476562 8.40625 -17.90625 C 8.15625 -17.519531 7.90625 -17.1875 7.65625 -16.90625 C 7.507812 -16.65625 7.3125 -16.40625 7.0625 -16.15625 C 6.78125 -15.726562 6.5 -15.335938 6.21875 -14.984375 C 6.1875 -14.921875 6.140625 -14.84375 6.078125 -14.75 C 6.023438 -14.664062 5.96875 -14.566406 5.90625 -14.453125 C 5.6875 -14.242188 5.648438 -13.976562 5.796875 -13.65625 C 5.972656 -13.375 6.21875 -13.234375 6.53125 -13.234375 C 6.925781 -13.234375 7.226562 -13.359375 7.4375 -13.609375 C 7.582031 -13.753906 7.71875 -13.882812 7.84375 -14 C 7.96875 -14.125 8.097656 -14.257812 8.234375 -14.40625 C 8.585938 -14.726562 8.929688 -15.070312 9.265625 -15.4375 C 9.609375 -15.8125 9.941406 -16.175781 10.265625 -16.53125 C 10.929688 -17.238281 11.566406 -17.972656 12.171875 -18.734375 C 12.773438 -19.492188 13.359375 -20.265625 13.921875 -21.046875 L 14.25 -21.421875 C 14.632812 -21.953125 14.992188 -22.519531 15.328125 -23.125 C 15.671875 -23.726562 16.019531 -24.421875 16.375 -25.203125 C 16.375 -25.234375 16.378906 -25.253906 16.390625 -25.265625 C 16.410156 -25.285156 16.421875 -25.316406 16.421875 -25.359375 C 16.492188 -25.535156 16.570312 -25.726562 16.65625 -25.9375 C 16.75 -26.15625 16.757812 -26.441406 16.6875 -26.796875 C 16.613281 -27.109375 16.4375 -27.300781 16.15625 -27.375 C 16.082031 -27.40625 15.992188 -27.421875 15.890625 -27.421875 Z M 15.890625 -27.421875 "/></g></g></g><g fill="#6d3c36" fill-opacity="1"><g transform="translate(66.661558, 88.935729)"><g><path d="M 1.109375 0.109375 C 0.972656 0.109375 0.84375 0.0976562 0.71875 0.078125 C 0.59375 0.0546875 0.457031 0.03125 0.3125 0 C -0.675781 -0.320312 -1.171875 -0.992188 -1.171875 -2.015625 C -1.171875 -2.515625 -1.132812 -3.019531 -1.0625 -3.53125 C -0.988281 -4.050781 -0.898438 -4.539062 -0.796875 -5 C -0.585938 -5.988281 -0.21875 -7.015625 0.3125 -8.078125 C 0.601562 -8.648438 0.929688 -9.289062 1.296875 -10 C 1.671875 -10.707031 2.035156 -11.429688 2.390625 -12.171875 C 2.421875 -12.242188 2.453125 -12.304688 2.484375 -12.359375 C 2.523438 -12.410156 2.566406 -12.453125 2.609375 -12.484375 C 2.679688 -12.523438 2.734375 -12.578125 2.765625 -12.640625 C 2.796875 -12.710938 2.832031 -12.769531 2.875 -12.8125 C 2.945312 -12.914062 3.023438 -13.03125 3.109375 -13.15625 C 3.203125 -13.28125 3.28125 -13.394531 3.34375 -13.5 C 3.457031 -13.675781 3.566406 -13.863281 3.671875 -14.0625 C 3.773438 -14.257812 3.878906 -14.425781 3.984375 -14.5625 C 4.128906 -14.738281 4.269531 -14.929688 4.40625 -15.140625 C 4.550781 -15.359375 4.695312 -15.554688 4.84375 -15.734375 C 4.90625 -15.835938 4.976562 -15.929688 5.0625 -16.015625 C 5.15625 -16.109375 5.222656 -16.207031 5.265625 -16.3125 C 5.441406 -16.5625 5.617188 -16.800781 5.796875 -17.03125 C 5.972656 -17.257812 6.148438 -17.5 6.328125 -17.75 C 6.679688 -18.25 7.023438 -18.726562 7.359375 -19.1875 C 7.691406 -19.644531 8.039062 -20.109375 8.40625 -20.578125 C 8.507812 -20.753906 8.613281 -20.898438 8.71875 -21.015625 C 8.820312 -21.140625 8.925781 -21.273438 9.03125 -21.421875 C 9.175781 -21.628906 9.316406 -21.832031 9.453125 -22.03125 C 9.597656 -22.226562 9.742188 -22.429688 9.890625 -22.640625 C 10.140625 -22.921875 10.367188 -23.257812 10.578125 -23.65625 C 10.722656 -23.832031 10.863281 -24.035156 11 -24.265625 C 11.144531 -24.492188 11.285156 -24.695312 11.421875 -24.875 C 11.597656 -25.125 11.773438 -25.351562 11.953125 -25.5625 C 12.128906 -25.78125 12.328125 -25.992188 12.546875 -26.203125 C 12.617188 -26.304688 12.6875 -26.398438 12.75 -26.484375 C 12.820312 -26.578125 12.894531 -26.660156 12.96875 -26.734375 L 13.125 -27 C 13.269531 -27.175781 13.410156 -27.34375 13.546875 -27.5 C 13.691406 -27.664062 13.835938 -27.816406 13.984375 -27.953125 C 14.335938 -28.347656 14.71875 -28.75 15.125 -29.15625 C 15.53125 -29.5625 15.984375 -29.960938 16.484375 -30.359375 C 16.585938 -30.460938 16.832031 -30.515625 17.21875 -30.515625 C 17.644531 -30.515625 17.910156 -30.460938 18.015625 -30.359375 C 18.410156 -30.003906 18.660156 -29.628906 18.765625 -29.234375 C 18.867188 -28.703125 18.867188 -28.207031 18.765625 -27.75 C 18.617188 -26.96875 18.382812 -26.171875 18.0625 -25.359375 C 17.75 -24.546875 17.328125 -23.625 16.796875 -22.59375 C 16.546875 -22.0625 16.242188 -21.546875 15.890625 -21.046875 C 15.535156 -20.554688 15.164062 -20.0625 14.78125 -19.5625 C 14.632812 -19.414062 14.546875 -19.3125 14.515625 -19.25 C 14.085938 -18.675781 13.648438 -18.125 13.203125 -17.59375 C 12.765625 -17.0625 12.316406 -16.515625 11.859375 -15.953125 L 11.59375 -15.6875 C 11.519531 -15.570312 11.4375 -15.46875 11.34375 -15.375 C 11.257812 -15.289062 11.179688 -15.21875 11.109375 -15.15625 C 11.078125 -15.113281 11.023438 -15.054688 10.953125 -14.984375 C 10.878906 -14.921875 10.804688 -14.851562 10.734375 -14.78125 C 10.660156 -14.707031 10.570312 -14.617188 10.46875 -14.515625 C 10.363281 -14.410156 10.273438 -14.300781 10.203125 -14.1875 C 10.023438 -14.007812 9.835938 -13.820312 9.640625 -13.625 C 9.453125 -13.4375 9.269531 -13.253906 9.09375 -13.078125 C 8.738281 -12.722656 8.363281 -12.367188 7.96875 -12.015625 C 7.582031 -11.660156 7.191406 -11.320312 6.796875 -11 C 6.441406 -10.6875 6.0625 -10.378906 5.65625 -10.078125 C 5.25 -9.773438 4.832031 -9.484375 4.40625 -9.203125 C 4.164062 -9.054688 3.910156 -8.910156 3.640625 -8.765625 C 3.378906 -8.628906 3.101562 -8.472656 2.8125 -8.296875 L 2.71875 -8.234375 C 2.53125 -8.171875 2.332031 -8.046875 2.125 -7.859375 C 1.914062 -7.679688 1.738281 -7.4375 1.59375 -7.125 C 1.5625 -7.050781 1.523438 -6.96875 1.484375 -6.875 C 1.453125 -6.789062 1.414062 -6.710938 1.375 -6.640625 C 1.238281 -6.210938 1.085938 -5.769531 0.921875 -5.3125 C 0.765625 -4.851562 0.648438 -4.375 0.578125 -3.875 C 0.578125 -3.769531 0.546875 -3.613281 0.484375 -3.40625 C 0.484375 -3.363281 0.472656 -3.296875 0.453125 -3.203125 C 0.429688 -3.117188 0.421875 -3.046875 0.421875 -2.984375 C 0.390625 -2.867188 0.375 -2.722656 0.375 -2.546875 C 0.375 -2.515625 0.375 -2.476562 0.375 -2.4375 C 0.375 -2.40625 0.375 -2.375 0.375 -2.34375 C 0.375 -2.050781 0.460938 -1.835938 0.640625 -1.703125 C 0.773438 -1.554688 0.953125 -1.484375 1.171875 -1.484375 C 1.203125 -1.484375 1.226562 -1.484375 1.25 -1.484375 C 1.269531 -1.484375 1.296875 -1.484375 1.328125 -1.484375 C 1.828125 -1.585938 2.253906 -1.738281 2.609375 -1.9375 C 2.960938 -2.132812 3.242188 -2.300781 3.453125 -2.4375 C 3.878906 -2.726562 4.273438 -3.023438 4.640625 -3.328125 C 5.015625 -3.628906 5.378906 -3.921875 5.734375 -4.203125 C 6.085938 -4.484375 6.394531 -4.75 6.65625 -5 C 6.925781 -5.25 7.171875 -5.492188 7.390625 -5.734375 C 7.492188 -5.773438 7.5625 -5.847656 7.59375 -5.953125 C 7.84375 -6.160156 8.082031 -6.390625 8.3125 -6.640625 C 8.550781 -6.890625 8.757812 -7.175781 8.9375 -7.5 C 9.039062 -7.675781 9.234375 -7.867188 9.515625 -8.078125 C 9.617188 -8.179688 9.707031 -8.253906 9.78125 -8.296875 C 9.8125 -8.367188 9.914062 -8.457031 10.09375 -8.5625 C 10.164062 -8.632812 10.222656 -8.671875 10.265625 -8.671875 C 10.398438 -8.804688 10.554688 -8.875 10.734375 -8.875 C 10.953125 -8.875 11.148438 -8.785156 11.328125 -8.609375 C 11.640625 -8.253906 11.617188 -7.898438 11.265625 -7.546875 C 11.128906 -7.398438 11 -7.253906 10.875 -7.109375 C 10.75 -6.972656 10.613281 -6.835938 10.46875 -6.703125 C 10.21875 -6.378906 9.941406 -6.066406 9.640625 -5.765625 C 9.347656 -5.460938 9.054688 -5.171875 8.765625 -4.890625 L 8.453125 -4.625 C 7.878906 -4.0625 7.300781 -3.519531 6.71875 -3 C 6.132812 -2.488281 5.523438 -2.003906 4.890625 -1.546875 C 4.109375 -0.972656 3.238281 -0.507812 2.28125 -0.15625 C 1.851562 0.0195312 1.460938 0.109375 1.109375 0.109375 Z M 15.890625 -27.421875 C 15.679688 -27.421875 15.488281 -27.332031 15.3125 -27.15625 C 15.238281 -27.09375 15.203125 -27.039062 15.203125 -27 C 15.171875 -26.96875 15.125 -26.925781 15.0625 -26.875 C 15.007812 -26.820312 14.953125 -26.757812 14.890625 -26.6875 C 14.847656 -26.644531 14.804688 -26.597656 14.765625 -26.546875 C 14.734375 -26.492188 14.6875 -26.429688 14.625 -26.359375 C 14.582031 -26.296875 14.535156 -26.21875 14.484375 -26.125 C 14.429688 -26.039062 14.367188 -25.960938 14.296875 -25.890625 C 13.941406 -25.535156 13.625 -25.171875 13.34375 -24.796875 C 13.0625 -24.421875 12.773438 -24.039062 12.484375 -23.65625 L 12.4375 -23.65625 C 12.289062 -23.4375 12.15625 -23.226562 12.03125 -23.03125 C 11.914062 -22.84375 11.785156 -22.660156 11.640625 -22.484375 C 11.460938 -22.234375 11.285156 -21.972656 11.109375 -21.703125 C 10.929688 -21.441406 10.753906 -21.171875 10.578125 -20.890625 C 10.253906 -20.429688 9.90625 -19.960938 9.53125 -19.484375 C 9.164062 -19.003906 8.789062 -18.476562 8.40625 -17.90625 C 8.15625 -17.519531 7.90625 -17.1875 7.65625 -16.90625 C 7.507812 -16.65625 7.3125 -16.40625 7.0625 -16.15625 C 6.78125 -15.726562 6.5 -15.335938 6.21875 -14.984375 C 6.1875 -14.921875 6.140625 -14.84375 6.078125 -14.75 C 6.023438 -14.664062 5.96875 -14.566406 5.90625 -14.453125 C 5.6875 -14.242188 5.648438 -13.976562 5.796875 -13.65625 C 5.972656 -13.375 6.21875 -13.234375 6.53125 -13.234375 C 6.925781 -13.234375 7.226562 -13.359375 7.4375 -13.609375 C 7.582031 -13.753906 7.71875 -13.882812 7.84375 -14 C 7.96875 -14.125 8.097656 -14.257812 8.234375 -14.40625 C 8.585938 -14.726562 8.929688 -15.070312 9.265625 -15.4375 C 9.609375 -15.8125 9.941406 -16.175781 10.265625 -16.53125 C 10.929688 -17.238281 11.566406 -17.972656 12.171875 -18.734375 C 12.773438 -19.492188 13.359375 -20.265625 13.921875 -21.046875 L 14.25 -21.421875 C 14.632812 -21.953125 14.992188 -22.519531 15.328125 -23.125 C 15.671875 -23.726562 16.019531 -24.421875 16.375 -25.203125 C 16.375 -25.234375 16.378906 -25.253906 16.390625 -25.265625 C 16.410156 -25.285156 16.421875 -25.316406 16.421875 -25.359375 C 16.492188 -25.535156 16.570312 -25.726562 16.65625 -25.9375 C 16.75 -26.15625 16.757812 -26.441406 16.6875 -26.796875 C 16.613281 -27.109375 16.4375 -27.300781 16.15625 -27.375 C 16.082031 -27.40625 15.992188 -27.421875 15.890625 -27.421875 Z M 15.890625 -27.421875 "/></g></g></g><g fill="#6d3c36" fill-opacity="1"><g transform="translate(76.440156, 88.935729)"><g/></g></g><g fill="#6d3c36" fill-opacity="1"><g transform="translate(84.411847, 88.935729)"><g><path d="M 7.65625 -0.21875 C 7.476562 -0.21875 7.273438 -0.222656 7.046875 -0.234375 C 6.816406 -0.253906 6.59375 -0.28125 6.375 -0.3125 C 4.644531 -0.53125 3.28125 -1.507812 2.28125 -3.25 C 1.613281 -4.550781 1.171875 -6.195312 0.953125 -8.1875 C 0.921875 -8.363281 0.910156 -8.554688 0.921875 -8.765625 C 0.941406 -8.984375 0.953125 -9.195312 0.953125 -9.40625 C 0.953125 -9.507812 0.953125 -9.601562 0.953125 -9.6875 C 0.953125 -9.78125 0.953125 -9.882812 0.953125 -10 C 0.953125 -10.03125 0.953125 -10.046875 0.953125 -10.046875 C 0.847656 -12.140625 1.238281 -14.351562 2.125 -16.6875 C 3.46875 -20.195312 5.347656 -23.300781 7.765625 -26 C 9.460938 -27.875 11.109375 -29.394531 12.703125 -30.5625 C 15.179688 -32.4375 18.015625 -33.835938 21.203125 -34.765625 C 22.203125 -35.046875 23.195312 -35.285156 24.1875 -35.484375 C 25.175781 -35.679688 26.148438 -35.832031 27.109375 -35.9375 C 27.921875 -36.039062 28.703125 -36.09375 29.453125 -36.09375 C 31.472656 -36.09375 33.597656 -35.8125 35.828125 -35.25 C 37.742188 -34.78125 39.359375 -33.710938 40.671875 -32.046875 C 42.546875 -29.609375 42.898438 -26.863281 41.734375 -23.8125 C 40.347656 -20.09375 37.707031 -17.03125 33.8125 -14.625 C 33.488281 -14.40625 33.164062 -14.222656 32.84375 -14.078125 C 32.53125 -13.941406 32.195312 -13.820312 31.84375 -13.71875 C 31.0625 -13.46875 30.296875 -13.269531 29.546875 -13.125 C 28.804688 -12.988281 28.066406 -12.882812 27.328125 -12.8125 C 27.148438 -12.769531 26.972656 -12.75 26.796875 -12.75 C 26.617188 -12.75 26.441406 -12.75 26.265625 -12.75 C 25.660156 -12.75 25.054688 -12.804688 24.453125 -12.921875 C 24.171875 -12.984375 23.867188 -13.03125 23.546875 -13.0625 C 23.222656 -13.101562 22.867188 -13.144531 22.484375 -13.1875 C 22.453125 -13.1875 22.425781 -13.1875 22.40625 -13.1875 C 22.382812 -13.1875 22.359375 -13.1875 22.328125 -13.1875 C 21.648438 -13.1875 21.117188 -12.882812 20.734375 -12.28125 C 20.628906 -12.132812 20.519531 -11.972656 20.40625 -11.796875 C 20.300781 -11.617188 20.195312 -11.441406 20.09375 -11.265625 C 19.84375 -10.878906 19.582031 -10.488281 19.3125 -10.09375 C 19.050781 -9.707031 18.78125 -9.320312 18.5 -8.9375 C 18 -8.21875 17.472656 -7.488281 16.921875 -6.75 C 16.378906 -6.007812 15.84375 -5.265625 15.3125 -4.515625 C 14.632812 -3.671875 13.78125 -2.820312 12.75 -1.96875 C 11.269531 -0.800781 9.570312 -0.21875 7.65625 -0.21875 Z M 29.65625 -34.390625 C 25.90625 -34.359375 22.289062 -33.597656 18.8125 -32.109375 C 17.925781 -31.753906 17.101562 -31.375 16.34375 -30.96875 C 15.582031 -30.5625 14.882812 -30.109375 14.25 -29.609375 C 11.65625 -27.691406 9.4375 -25.546875 7.59375 -23.171875 C 5.6875 -20.660156 4.289062 -17.988281 3.40625 -15.15625 C 2.40625 -12.25 2.265625 -9.285156 2.984375 -6.265625 C 3.085938 -5.773438 3.21875 -5.332031 3.375 -4.9375 C 3.53125 -4.550781 3.71875 -4.179688 3.9375 -3.828125 C 4.71875 -2.585938 5.78125 -1.945312 7.125 -1.90625 C 7.195312 -1.90625 7.273438 -1.90625 7.359375 -1.90625 C 7.453125 -1.90625 7.53125 -1.90625 7.59375 -1.90625 C 9.082031 -1.90625 10.445312 -2.367188 11.6875 -3.296875 C 12.570312 -4.003906 13.390625 -4.835938 14.140625 -5.796875 C 14.992188 -6.859375 15.800781 -7.9375 16.5625 -9.03125 C 17.320312 -10.132812 18.039062 -11.21875 18.71875 -12.28125 C 18.78125 -12.382812 18.847656 -12.507812 18.921875 -12.65625 C 18.960938 -12.6875 18.984375 -12.738281 18.984375 -12.8125 C 19.160156 -13.09375 19.191406 -13.425781 19.078125 -13.8125 C 18.972656 -14.207031 18.78125 -14.492188 18.5 -14.671875 C 18.425781 -14.742188 18.34375 -14.804688 18.25 -14.859375 C 18.164062 -14.910156 18.085938 -14.953125 18.015625 -14.984375 C 17.878906 -15.054688 17.753906 -15.128906 17.640625 -15.203125 C 17.535156 -15.273438 17.429688 -15.347656 17.328125 -15.421875 C 16.472656 -16.015625 15.753906 -16.640625 15.171875 -17.296875 C 14.585938 -17.953125 14.101562 -18.632812 13.71875 -19.34375 C 13.644531 -19.519531 13.570312 -19.695312 13.5 -19.875 C 13.425781 -20.050781 13.351562 -20.25 13.28125 -20.46875 C 13.21875 -20.78125 13.34375 -21.023438 13.65625 -21.203125 C 13.832031 -21.316406 13.976562 -21.375 14.09375 -21.375 C 14.269531 -21.375 14.425781 -21.300781 14.5625 -21.15625 C 14.632812 -21.050781 14.707031 -20.9375 14.78125 -20.8125 C 14.851562 -20.6875 14.921875 -20.550781 14.984375 -20.40625 C 15.054688 -20.300781 15.128906 -20.195312 15.203125 -20.09375 C 15.273438 -19.988281 15.347656 -19.882812 15.421875 -19.78125 C 15.835938 -19.175781 16.363281 -18.523438 17 -17.828125 C 17.644531 -17.140625 18.460938 -16.601562 19.453125 -16.21875 C 19.671875 -16.101562 19.882812 -16.046875 20.09375 -16.046875 C 20.59375 -16.046875 20.984375 -16.242188 21.265625 -16.640625 C 21.546875 -17.023438 21.835938 -17.421875 22.140625 -17.828125 C 22.441406 -18.234375 22.71875 -18.617188 22.96875 -18.984375 L 23.0625 -19.1875 C 23.53125 -19.789062 23.984375 -20.421875 24.421875 -21.078125 C 24.867188 -21.734375 25.285156 -22.363281 25.671875 -22.96875 C 26.347656 -23.988281 27.03125 -24.992188 27.71875 -25.984375 C 28.40625 -26.984375 29.125 -27.960938 29.875 -28.921875 C 30.082031 -29.203125 30.289062 -29.472656 30.5 -29.734375 C 30.71875 -30.003906 30.9375 -30.265625 31.15625 -30.515625 C 31.332031 -30.722656 31.523438 -30.941406 31.734375 -31.171875 C 31.941406 -31.398438 32.132812 -31.640625 32.3125 -31.890625 C 32.488281 -32.109375 32.613281 -32.394531 32.6875 -32.75 L 32.6875 -32.796875 C 32.789062 -33.078125 32.753906 -33.34375 32.578125 -33.59375 C 32.441406 -33.800781 32.238281 -33.957031 31.96875 -34.0625 C 31.707031 -34.175781 31.46875 -34.25 31.25 -34.28125 C 31.007812 -34.28125 30.78125 -34.289062 30.5625 -34.3125 C 30.351562 -34.332031 30.160156 -34.359375 29.984375 -34.390625 C 29.941406 -34.390625 29.90625 -34.390625 29.875 -34.390625 C 29.84375 -34.390625 29.804688 -34.390625 29.765625 -34.390625 C 29.734375 -34.390625 29.71875 -34.390625 29.71875 -34.390625 C 29.71875 -34.390625 29.695312 -34.390625 29.65625 -34.390625 Z M 36.890625 -32.75 C 36.535156 -32.75 36.195312 -32.660156 35.875 -32.484375 C 35.5625 -32.304688 35.175781 -32.039062 34.71875 -31.6875 C 34.21875 -31.363281 33.71875 -30.898438 33.21875 -30.296875 C 32.65625 -29.734375 32.070312 -29.039062 31.46875 -28.21875 C 30.9375 -27.476562 30.378906 -26.703125 29.796875 -25.890625 C 29.210938 -25.078125 28.566406 -24.171875 27.859375 -23.171875 C 27.179688 -22.179688 26.503906 -21.191406 25.828125 -20.203125 C 25.160156 -19.210938 24.503906 -18.238281 23.859375 -17.28125 C 23.648438 -16.925781 23.492188 -16.570312 23.390625 -16.21875 C 23.316406 -15.96875 23.347656 -15.691406 23.484375 -15.390625 C 23.628906 -15.085938 23.828125 -14.898438 24.078125 -14.828125 C 24.328125 -14.796875 24.566406 -14.742188 24.796875 -14.671875 C 25.023438 -14.597656 25.226562 -14.546875 25.40625 -14.515625 C 25.476562 -14.472656 25.539062 -14.453125 25.59375 -14.453125 C 25.644531 -14.453125 25.691406 -14.4375 25.734375 -14.40625 C 25.765625 -14.40625 25.785156 -14.40625 25.796875 -14.40625 C 25.816406 -14.40625 25.847656 -14.40625 25.890625 -14.40625 C 25.921875 -14.40625 25.9375 -14.40625 25.9375 -14.40625 C 27.75 -14.507812 29.390625 -14.765625 30.859375 -15.171875 C 32.328125 -15.578125 33.664062 -16.332031 34.875 -17.4375 C 34.945312 -17.507812 35.085938 -17.613281 35.296875 -17.75 C 35.398438 -17.851562 35.5625 -17.976562 35.78125 -18.125 C 37.90625 -20 39.390625 -22.179688 40.234375 -24.671875 C 41.085938 -27.035156 40.769531 -29.160156 39.28125 -31.046875 C 38.925781 -31.535156 38.5625 -31.941406 38.1875 -32.265625 C 37.820312 -32.585938 37.390625 -32.75 36.890625 -32.75 Z M 36.890625 -32.75 "/></g></g></g><g fill="#6d3c36" fill-opacity="1"><g transform="translate(117.148906, 88.935729)"><g><path d="M 0.109375 0.421875 C -0.316406 0.421875 -0.691406 0.351562 -1.015625 0.21875 C -1.609375 -0.03125 -2.015625 -0.421875 -2.234375 -0.953125 C -2.367188 -1.347656 -2.421875 -1.75 -2.390625 -2.15625 C -2.359375 -2.5625 -2.320312 -2.992188 -2.28125 -3.453125 L -2.28125 -3.5625 C -2.28125 -3.632812 -2.257812 -3.703125 -2.21875 -3.765625 C -2.1875 -3.835938 -2.15625 -3.910156 -2.125 -3.984375 C -2.09375 -4.054688 -2.054688 -4.128906 -2.015625 -4.203125 C -1.984375 -4.273438 -1.945312 -4.34375 -1.90625 -4.40625 C -1.445312 -5.613281 -0.707031 -6.875 0.3125 -8.1875 C 0.78125 -8.71875 1.222656 -9.203125 1.640625 -9.640625 C 2.066406 -10.085938 2.492188 -10.503906 2.921875 -10.890625 C 3.066406 -10.960938 3.203125 -11.050781 3.328125 -11.15625 C 3.453125 -11.269531 3.582031 -11.359375 3.71875 -11.421875 C 3.9375 -11.492188 4.0625 -11.53125 4.09375 -11.53125 C 4.269531 -11.53125 4.429688 -11.460938 4.578125 -11.328125 C 4.609375 -11.328125 4.675781 -11.269531 4.78125 -11.15625 C 4.820312 -11.125 4.847656 -11.097656 4.859375 -11.078125 C 4.878906 -11.066406 4.90625 -11.039062 4.9375 -11 C 5.113281 -10.894531 5.289062 -10.84375 5.46875 -10.84375 C 5.507812 -10.84375 5.546875 -10.84375 5.578125 -10.84375 C 5.617188 -10.84375 5.65625 -10.84375 5.6875 -10.84375 C 6.007812 -10.945312 6.1875 -11.125 6.21875 -11.375 C 6.394531 -11.9375 6.632812 -12.457031 6.9375 -12.9375 C 7.238281 -13.414062 7.546875 -13.867188 7.859375 -14.296875 C 8.046875 -14.472656 8.226562 -14.660156 8.40625 -14.859375 C 8.582031 -15.054688 8.789062 -15.222656 9.03125 -15.359375 C 9.914062 -15.890625 10.679688 -16.175781 11.328125 -16.21875 C 11.359375 -16.21875 11.375 -16.21875 11.375 -16.21875 C 11.375 -16.21875 11.390625 -16.21875 11.421875 -16.21875 C 11.460938 -16.21875 11.488281 -16.21875 11.5 -16.21875 C 11.519531 -16.21875 11.53125 -16.21875 11.53125 -16.21875 C 11.707031 -16.21875 11.957031 -16.054688 12.28125 -15.734375 C 12.632812 -15.410156 12.8125 -15.160156 12.8125 -14.984375 C 12.84375 -14.671875 12.832031 -14.351562 12.78125 -14.03125 C 12.726562 -13.71875 12.664062 -13.378906 12.59375 -13.015625 C 12.5625 -12.910156 12.535156 -12.804688 12.515625 -12.703125 C 12.492188 -12.597656 12.46875 -12.492188 12.4375 -12.390625 C 12.332031 -11.816406 12.164062 -11.253906 11.9375 -10.703125 C 11.707031 -10.160156 11.445312 -9.585938 11.15625 -8.984375 C 11.125 -8.953125 11.070312 -8.863281 11 -8.71875 C 10.613281 -7.90625 10.132812 -7.144531 9.5625 -6.4375 C 9.425781 -6.21875 9.335938 -6.054688 9.296875 -5.953125 C 9.265625 -5.921875 9.238281 -5.882812 9.21875 -5.84375 C 9.207031 -5.8125 9.179688 -5.773438 9.140625 -5.734375 C 8.960938 -5.378906 8.984375 -5.082031 9.203125 -4.84375 C 9.378906 -4.625 9.585938 -4.515625 9.828125 -4.515625 C 9.867188 -4.515625 9.90625 -4.515625 9.9375 -4.515625 C 9.976562 -4.515625 10.015625 -4.515625 10.046875 -4.515625 C 10.429688 -4.660156 10.8125 -4.820312 11.1875 -5 C 11.5625 -5.175781 11.925781 -5.390625 12.28125 -5.640625 C 13.238281 -6.304688 14.070312 -7.171875 14.78125 -8.234375 C 14.957031 -8.453125 15.148438 -8.5625 15.359375 -8.5625 C 15.535156 -8.5625 15.695312 -8.507812 15.84375 -8.40625 C 16.269531 -8.15625 16.335938 -7.796875 16.046875 -7.328125 C 15.410156 -6.378906 14.789062 -5.65625 14.1875 -5.15625 C 12.875 -3.988281 11.597656 -3.28125 10.359375 -3.03125 C 9.941406 -2.925781 9.570312 -2.875 9.25 -2.875 C 8.820312 -2.875 8.394531 -2.976562 7.96875 -3.1875 C 7.832031 -3.257812 7.726562 -3.296875 7.65625 -3.296875 C 7.65625 -3.296875 7.644531 -3.296875 7.625 -3.296875 C 7.601562 -3.296875 7.59375 -3.296875 7.59375 -3.296875 C 7.5625 -3.296875 7.535156 -3.296875 7.515625 -3.296875 C 7.503906 -3.296875 7.460938 -3.296875 7.390625 -3.296875 C 7.242188 -3.296875 7.082031 -3.242188 6.90625 -3.140625 C 6.875 -3.097656 6.820312 -3.0625 6.75 -3.03125 C 6.675781 -3 6.601562 -2.945312 6.53125 -2.875 C 6.394531 -2.726562 6.253906 -2.601562 6.109375 -2.5 C 5.972656 -2.394531 5.816406 -2.269531 5.640625 -2.125 C 5.285156 -1.84375 4.910156 -1.550781 4.515625 -1.25 C 4.128906 -0.945312 3.707031 -0.707031 3.25 -0.53125 C 3.132812 -0.5 3.023438 -0.460938 2.921875 -0.421875 C 2.816406 -0.390625 2.691406 -0.351562 2.546875 -0.3125 C 2.335938 -0.207031 2.117188 -0.109375 1.890625 -0.015625 C 1.660156 0.0664062 1.421875 0.144531 1.171875 0.21875 C 0.847656 0.351562 0.492188 0.421875 0.109375 0.421875 Z M 2.34375 -8.03125 C 2.050781 -7.8125 1.800781 -7.566406 1.59375 -7.296875 C 1.382812 -7.035156 1.191406 -6.765625 1.015625 -6.484375 L 0.953125 -6.4375 C 0.210938 -5.375 -0.296875 -4.429688 -0.578125 -3.609375 C -0.796875 -3.015625 -0.882812 -2.445312 -0.84375 -1.90625 C -0.84375 -1.695312 -0.753906 -1.503906 -0.578125 -1.328125 C -0.398438 -1.222656 -0.222656 -1.171875 -0.046875 -1.171875 C -0.015625 -1.171875 0 -1.171875 0 -1.171875 C 0 -1.171875 0.015625 -1.171875 0.046875 -1.171875 C 0.0859375 -1.171875 0.113281 -1.171875 0.125 -1.171875 C 0.144531 -1.171875 0.175781 -1.171875 0.21875 -1.171875 C 0.28125 -1.171875 0.363281 -1.175781 0.46875 -1.1875 C 0.582031 -1.207031 0.691406 -1.238281 0.796875 -1.28125 C 0.867188 -1.3125 0.929688 -1.328125 0.984375 -1.328125 C 1.035156 -1.328125 1.078125 -1.34375 1.109375 -1.375 C 1.609375 -1.550781 2.097656 -1.738281 2.578125 -1.9375 C 3.054688 -2.132812 3.507812 -2.410156 3.9375 -2.765625 C 4.144531 -2.941406 4.351562 -3.109375 4.5625 -3.265625 C 4.78125 -3.429688 4.976562 -3.582031 5.15625 -3.71875 C 5.226562 -3.789062 5.304688 -3.863281 5.390625 -3.9375 C 5.484375 -4.007812 5.566406 -4.078125 5.640625 -4.140625 C 5.921875 -4.316406 6.023438 -4.582031 5.953125 -4.9375 C 5.921875 -5.050781 5.894531 -5.164062 5.875 -5.28125 C 5.851562 -5.40625 5.828125 -5.523438 5.796875 -5.640625 C 5.722656 -5.921875 5.660156 -6.175781 5.609375 -6.40625 C 5.554688 -6.632812 5.492188 -6.875 5.421875 -7.125 C 5.390625 -7.300781 5.378906 -7.476562 5.390625 -7.65625 C 5.410156 -7.832031 5.421875 -8.023438 5.421875 -8.234375 C 5.453125 -8.410156 5.46875 -8.578125 5.46875 -8.734375 C 5.46875 -8.898438 5.46875 -9.070312 5.46875 -9.25 C 5.46875 -9.53125 5.328125 -9.757812 5.046875 -9.9375 C 4.972656 -9.976562 4.847656 -10 4.671875 -10 C 4.535156 -10 4.378906 -9.941406 4.203125 -9.828125 C 3.878906 -9.585938 3.578125 -9.347656 3.296875 -9.109375 C 3.015625 -8.878906 2.75 -8.609375 2.5 -8.296875 C 2.5 -8.253906 2.476562 -8.21875 2.4375 -8.1875 C 2.4375 -8.15625 2.421875 -8.128906 2.390625 -8.109375 C 2.359375 -8.085938 2.34375 -8.0625 2.34375 -8.03125 Z M 10.15625 -13.984375 C 10.050781 -13.984375 9.910156 -13.929688 9.734375 -13.828125 C 9.234375 -13.460938 8.796875 -12.96875 8.421875 -12.34375 C 8.046875 -11.726562 7.804688 -11.300781 7.703125 -11.0625 C 7.566406 -10.664062 7.410156 -10.148438 7.234375 -9.515625 C 7.054688 -8.878906 7.054688 -8.3125 7.234375 -7.8125 C 7.335938 -7.53125 7.566406 -7.351562 7.921875 -7.28125 C 7.921875 -7.28125 7.925781 -7.28125 7.9375 -7.28125 C 7.957031 -7.28125 7.96875 -7.28125 7.96875 -7.28125 C 8.320312 -7.28125 8.554688 -7.421875 8.671875 -7.703125 C 8.734375 -7.878906 8.816406 -8.039062 8.921875 -8.1875 C 9.035156 -8.332031 9.128906 -8.472656 9.203125 -8.609375 C 9.585938 -9.316406 9.945312 -10.023438 10.28125 -10.734375 C 10.625 -11.441406 10.847656 -12.222656 10.953125 -13.078125 C 11.023438 -13.398438 10.898438 -13.648438 10.578125 -13.828125 C 10.472656 -13.929688 10.332031 -13.984375 10.15625 -13.984375 Z M 10.15625 -13.984375 "/></g></g></g><g fill="#6d3c36" fill-opacity="1"><g transform="translate(131.391649, 88.935729)"><g><path d="M 10.625 0.109375 C 10.488281 0.109375 10.335938 0.0703125 10.171875 0 C 10.015625 -0.0703125 9.847656 -0.160156 9.671875 -0.265625 C 9.640625 -0.265625 9.550781 -0.300781 9.40625 -0.375 C 9.019531 -0.90625 8.804688 -1.398438 8.765625 -1.859375 C 8.734375 -2.179688 8.757812 -2.492188 8.84375 -2.796875 C 8.9375 -3.097656 9.054688 -3.425781 9.203125 -3.78125 C 9.234375 -3.84375 9.253906 -3.914062 9.265625 -4 C 9.285156 -4.09375 9.316406 -4.175781 9.359375 -4.25 C 9.460938 -4.46875 9.554688 -4.691406 9.640625 -4.921875 C 9.734375 -5.148438 9.832031 -5.390625 9.9375 -5.640625 C 9.976562 -5.742188 10.03125 -5.863281 10.09375 -6 C 10.09375 -6.039062 10.128906 -6.128906 10.203125 -6.265625 C 10.273438 -6.335938 10.3125 -6.410156 10.3125 -6.484375 C 10.59375 -7.046875 10.847656 -7.582031 11.078125 -8.09375 C 11.304688 -8.613281 11.546875 -9.101562 11.796875 -9.5625 C 11.835938 -9.675781 11.859375 -9.820312 11.859375 -10 C 11.859375 -10 11.859375 -10.015625 11.859375 -10.046875 C 11.921875 -10.328125 11.832031 -10.554688 11.59375 -10.734375 C 11.445312 -10.835938 11.269531 -10.890625 11.0625 -10.890625 C 11.019531 -10.890625 10.988281 -10.890625 10.96875 -10.890625 C 10.957031 -10.890625 10.914062 -10.890625 10.84375 -10.890625 C 10.8125 -10.890625 10.785156 -10.878906 10.765625 -10.859375 C 10.742188 -10.847656 10.71875 -10.84375 10.6875 -10.84375 C 10.644531 -10.8125 10.597656 -10.796875 10.546875 -10.796875 C 10.492188 -10.796875 10.453125 -10.773438 10.421875 -10.734375 C 9.816406 -10.597656 9.253906 -10.378906 8.734375 -10.078125 C 8.222656 -9.773438 7.722656 -9.460938 7.234375 -9.140625 C 6.453125 -8.648438 5.734375 -8.09375 5.078125 -7.46875 C 4.421875 -6.84375 3.773438 -6.234375 3.140625 -5.640625 L 2.984375 -5.46875 C 2.804688 -5.257812 2.597656 -5.054688 2.359375 -4.859375 C 2.128906 -4.671875 1.925781 -4.488281 1.75 -4.3125 C 1.613281 -4.164062 1.457031 -4.019531 1.28125 -3.875 C 1.101562 -3.738281 0.925781 -3.582031 0.75 -3.40625 C 0.601562 -3.257812 0.457031 -3.113281 0.3125 -2.96875 C 0.175781 -2.832031 0.0351562 -2.675781 -0.109375 -2.5 C -0.242188 -2.394531 -0.375 -2.269531 -0.5 -2.125 C -0.625 -1.976562 -0.757812 -1.851562 -0.90625 -1.75 C -0.9375 -1.71875 -0.960938 -1.679688 -0.984375 -1.640625 C -1.003906 -1.609375 -1.046875 -1.578125 -1.109375 -1.546875 C -1.285156 -1.367188 -1.472656 -1.191406 -1.671875 -1.015625 C -1.867188 -0.835938 -2.070312 -0.660156 -2.28125 -0.484375 C -2.601562 -0.265625 -2.957031 -0.15625 -3.34375 -0.15625 C -3.382812 -0.15625 -3.421875 -0.15625 -3.453125 -0.15625 C -3.492188 -0.15625 -3.546875 -0.15625 -3.609375 -0.15625 C -3.828125 -0.226562 -4.003906 -0.351562 -4.140625 -0.53125 C -4.253906 -0.8125 -4.238281 -1.0625 -4.09375 -1.28125 C -3.988281 -1.488281 -3.863281 -1.695312 -3.71875 -1.90625 C -3.582031 -2.125 -3.441406 -2.359375 -3.296875 -2.609375 C -3.222656 -2.742188 -3.132812 -2.882812 -3.03125 -3.03125 C -2.925781 -3.175781 -2.835938 -3.316406 -2.765625 -3.453125 C -2.617188 -3.628906 -2.484375 -3.816406 -2.359375 -4.015625 C -2.234375 -4.210938 -2.101562 -4.398438 -1.96875 -4.578125 C -1.75 -4.890625 -1.523438 -5.203125 -1.296875 -5.515625 C -1.066406 -5.835938 -0.863281 -6.175781 -0.6875 -6.53125 C -0.613281 -6.675781 -0.53125 -6.8125 -0.4375 -6.9375 C -0.351562 -7.0625 -0.257812 -7.191406 -0.15625 -7.328125 C -0.0820312 -7.441406 -0.00390625 -7.550781 0.078125 -7.65625 C 0.171875 -7.757812 0.25 -7.863281 0.3125 -7.96875 C 0.382812 -8.113281 0.472656 -8.25 0.578125 -8.375 C 0.691406 -8.5 0.78125 -8.628906 0.84375 -8.765625 C 1.132812 -9.160156 1.398438 -9.550781 1.640625 -9.9375 C 1.890625 -10.332031 2.101562 -10.757812 2.28125 -11.21875 C 2.425781 -11.46875 2.640625 -11.59375 2.921875 -11.59375 C 3.066406 -11.59375 3.175781 -11.570312 3.25 -11.53125 C 3.632812 -11.394531 3.789062 -11.09375 3.71875 -10.625 C 3.71875 -10.5625 3.703125 -10.492188 3.671875 -10.421875 C 3.671875 -10.347656 3.648438 -10.273438 3.609375 -10.203125 C 3.546875 -9.847656 3.671875 -9.582031 3.984375 -9.40625 C 4.085938 -9.300781 4.226562 -9.25 4.40625 -9.25 C 4.582031 -9.25 4.742188 -9.300781 4.890625 -9.40625 C 4.960938 -9.476562 5.050781 -9.550781 5.15625 -9.625 C 5.257812 -9.695312 5.363281 -9.75 5.46875 -9.78125 C 5.644531 -9.925781 5.835938 -10.054688 6.046875 -10.171875 C 6.265625 -10.296875 6.460938 -10.429688 6.640625 -10.578125 C 7.773438 -11.390625 8.945312 -11.957031 10.15625 -12.28125 C 10.363281 -12.351562 10.566406 -12.414062 10.765625 -12.46875 C 10.960938 -12.519531 11.164062 -12.5625 11.375 -12.59375 C 11.40625 -12.59375 11.445312 -12.59375 11.5 -12.59375 C 11.5625 -12.59375 11.609375 -12.59375 11.640625 -12.59375 C 11.960938 -12.59375 12.300781 -12.515625 12.65625 -12.359375 C 13.007812 -12.203125 13.253906 -11.976562 13.390625 -11.6875 C 13.460938 -11.625 13.5 -11.535156 13.5 -11.421875 C 13.644531 -10.828125 13.609375 -10.207031 13.390625 -9.5625 C 13.179688 -8.894531 12.914062 -8.234375 12.59375 -7.578125 C 12.28125 -6.921875 11.976562 -6.328125 11.6875 -5.796875 C 11.445312 -5.335938 11.242188 -4.859375 11.078125 -4.359375 C 10.921875 -3.859375 10.753906 -3.363281 10.578125 -2.875 C 10.546875 -2.800781 10.492188 -2.65625 10.421875 -2.4375 C 10.316406 -2.257812 10.332031 -2.03125 10.46875 -1.75 C 10.6875 -1.539062 10.898438 -1.4375 11.109375 -1.4375 C 11.140625 -1.4375 11.179688 -1.425781 11.234375 -1.40625 C 11.296875 -1.382812 11.34375 -1.375 11.375 -1.375 C 11.757812 -1.375 12.117188 -1.453125 12.453125 -1.609375 C 12.796875 -1.773438 13.09375 -1.929688 13.34375 -2.078125 L 13.453125 -2.171875 C 13.734375 -2.347656 14.023438 -2.535156 14.328125 -2.734375 C 14.628906 -2.929688 14.90625 -3.15625 15.15625 -3.40625 C 15.46875 -3.71875 15.789062 -4.039062 16.125 -4.375 C 16.46875 -4.71875 16.816406 -5.101562 17.171875 -5.53125 C 17.421875 -5.8125 17.648438 -6.082031 17.859375 -6.34375 C 18.066406 -6.613281 18.28125 -6.875 18.5 -7.125 C 18.601562 -7.257812 18.707031 -7.390625 18.8125 -7.515625 C 18.925781 -7.640625 19.035156 -7.773438 19.140625 -7.921875 C 19.316406 -8.128906 19.53125 -8.234375 19.78125 -8.234375 C 19.957031 -8.234375 20.113281 -8.179688 20.25 -8.078125 C 20.425781 -7.929688 20.53125 -7.757812 20.5625 -7.5625 C 20.601562 -7.375 20.550781 -7.191406 20.40625 -7.015625 C 20.269531 -6.835938 20.128906 -6.648438 19.984375 -6.453125 C 19.847656 -6.265625 19.691406 -6.082031 19.515625 -5.90625 C 19.441406 -5.789062 19.332031 -5.664062 19.1875 -5.53125 C 19.113281 -5.457031 19.039062 -5.375 18.96875 -5.28125 C 18.90625 -5.195312 18.835938 -5.117188 18.765625 -5.046875 C 18.585938 -4.796875 18.410156 -4.566406 18.234375 -4.359375 C 18.054688 -4.148438 17.878906 -3.957031 17.703125 -3.78125 C 17.523438 -3.601562 17.335938 -3.414062 17.140625 -3.21875 C 16.941406 -3.019531 16.753906 -2.832031 16.578125 -2.65625 C 16.472656 -2.582031 16.367188 -2.492188 16.265625 -2.390625 C 16.160156 -2.285156 16.054688 -2.195312 15.953125 -2.125 C 15.703125 -1.875 15.414062 -1.632812 15.09375 -1.40625 C 14.78125 -1.175781 14.460938 -0.957031 14.140625 -0.75 L 13.984375 -0.640625 C 13.234375 -0.210938 12.539062 0.0351562 11.90625 0.109375 C 11.832031 0.109375 11.75 0.109375 11.65625 0.109375 C 11.570312 0.109375 11.476562 0.109375 11.375 0.109375 C 11.269531 0.109375 11.160156 0.109375 11.046875 0.109375 C 10.941406 0.109375 10.820312 0.109375 10.6875 0.109375 C 10.6875 0.109375 10.675781 0.109375 10.65625 0.109375 C 10.632812 0.109375 10.625 0.109375 10.625 0.109375 Z M 10.625 0.109375 "/></g></g></g><g fill="#6d3c36" fill-opacity="1"><g transform="translate(150.789418, 88.935729)"><g><path d="M 11.109375 0.3125 C 11.078125 0.3125 11.0625 0.3125 11.0625 0.3125 C 11.0625 0.3125 11.039062 0.3125 11 0.3125 C 10.332031 0.3125 9.800781 0.101562 9.40625 -0.3125 C 9.375 -0.382812 9.320312 -0.460938 9.25 -0.546875 C 9.175781 -0.640625 9.101562 -0.707031 9.03125 -0.75 C 8.96875 -0.8125 8.898438 -0.878906 8.828125 -0.953125 C 8.753906 -1.023438 8.703125 -1.078125 8.671875 -1.109375 C 8.597656 -1.285156 8.523438 -1.550781 8.453125 -1.90625 C 8.453125 -1.976562 8.441406 -2.050781 8.421875 -2.125 C 8.410156 -2.195312 8.382812 -2.269531 8.34375 -2.34375 C 8.34375 -2.34375 8.34375 -2.347656 8.34375 -2.359375 C 8.34375 -2.378906 8.34375 -2.390625 8.34375 -2.390625 C 8.34375 -2.421875 8.34375 -2.453125 8.34375 -2.484375 C 8.34375 -2.523438 8.34375 -2.566406 8.34375 -2.609375 C 8.34375 -2.921875 8.179688 -3.148438 7.859375 -3.296875 C 7.722656 -3.367188 7.617188 -3.40625 7.546875 -3.40625 C 7.398438 -3.40625 7.222656 -3.332031 7.015625 -3.1875 C 6.984375 -3.15625 6.9375 -3.113281 6.875 -3.0625 C 6.820312 -3.007812 6.765625 -2.945312 6.703125 -2.875 C 6.585938 -2.769531 6.476562 -2.671875 6.375 -2.578125 C 6.269531 -2.484375 6.179688 -2.40625 6.109375 -2.34375 C 6.003906 -2.269531 5.898438 -2.1875 5.796875 -2.09375 C 5.691406 -2.007812 5.582031 -1.929688 5.46875 -1.859375 C 5.363281 -1.828125 5.265625 -1.78125 5.171875 -1.71875 C 5.085938 -1.664062 5.007812 -1.609375 4.9375 -1.546875 C 4.65625 -1.328125 4.375 -1.140625 4.09375 -0.984375 C 3.8125 -0.828125 3.53125 -0.660156 3.25 -0.484375 C 2.394531 0.015625 1.59375 0.265625 0.84375 0.265625 C 0.8125 0.265625 0.769531 0.265625 0.71875 0.265625 C 0.664062 0.265625 0.601562 0.265625 0.53125 0.265625 C -0.25 0.160156 -0.816406 -0.0859375 -1.171875 -0.484375 C -1.421875 -0.765625 -1.597656 -1.117188 -1.703125 -1.546875 C -1.835938 -2.003906 -1.851562 -2.445312 -1.75 -2.875 C -1.675781 -3.007812 -1.628906 -3.148438 -1.609375 -3.296875 C -1.597656 -3.441406 -1.578125 -3.582031 -1.546875 -3.71875 C -1.503906 -3.894531 -1.460938 -4.050781 -1.421875 -4.1875 C -1.390625 -4.332031 -1.359375 -4.476562 -1.328125 -4.625 C -1.179688 -5.050781 -1.003906 -5.492188 -0.796875 -5.953125 C -0.585938 -6.410156 -0.304688 -6.867188 0.046875 -7.328125 C 0.265625 -7.648438 0.460938 -7.988281 0.640625 -8.34375 C 0.710938 -8.488281 0.789062 -8.625 0.875 -8.75 C 0.96875 -8.875 1.046875 -8.988281 1.109375 -9.09375 C 1.179688 -9.226562 1.269531 -9.347656 1.375 -9.453125 C 1.488281 -9.566406 1.597656 -9.691406 1.703125 -9.828125 L 1.75 -9.890625 C 2.5 -10.804688 3.351562 -11.601562 4.3125 -12.28125 C 4.375 -12.351562 4.445312 -12.421875 4.53125 -12.484375 C 4.625 -12.554688 4.707031 -12.613281 4.78125 -12.65625 C 4.957031 -12.789062 5.144531 -12.921875 5.34375 -13.046875 C 5.539062 -13.171875 5.726562 -13.285156 5.90625 -13.390625 C 6.613281 -13.816406 7.285156 -14.15625 7.921875 -14.40625 C 8.660156 -14.757812 9.5625 -14.9375 10.625 -14.9375 C 10.695312 -14.9375 10.769531 -14.9375 10.84375 -14.9375 C 10.914062 -14.9375 10.96875 -14.9375 11 -14.9375 C 12.03125 -14.90625 12.847656 -14.566406 13.453125 -13.921875 C 13.585938 -13.785156 13.765625 -13.71875 13.984375 -13.71875 C 14.015625 -13.71875 14.03125 -13.71875 14.03125 -13.71875 C 14.25 -13.71875 14.445312 -13.804688 14.625 -13.984375 C 14.65625 -14.015625 14.675781 -14.039062 14.6875 -14.0625 C 14.707031 -14.082031 14.738281 -14.109375 14.78125 -14.140625 C 14.851562 -14.210938 14.921875 -14.289062 14.984375 -14.375 C 15.054688 -14.46875 15.113281 -14.550781 15.15625 -14.625 C 15.257812 -14.757812 15.351562 -14.890625 15.4375 -15.015625 C 15.53125 -15.140625 15.613281 -15.273438 15.6875 -15.421875 C 16 -15.878906 16.3125 -16.335938 16.625 -16.796875 C 16.945312 -17.253906 17.253906 -17.710938 17.546875 -18.171875 C 17.722656 -18.492188 17.929688 -18.804688 18.171875 -19.109375 C 18.421875 -19.410156 18.671875 -19.722656 18.921875 -20.046875 C 18.992188 -20.148438 19.070312 -20.253906 19.15625 -20.359375 C 19.25 -20.460938 19.347656 -20.566406 19.453125 -20.671875 C 19.597656 -20.847656 19.734375 -21.023438 19.859375 -21.203125 C 19.984375 -21.378906 20.113281 -21.554688 20.25 -21.734375 C 20.394531 -21.910156 20.519531 -22.078125 20.625 -22.234375 C 20.726562 -22.398438 20.851562 -22.570312 21 -22.75 C 21.207031 -23 21.414062 -23.238281 21.625 -23.46875 C 21.84375 -23.695312 22.054688 -23.9375 22.265625 -24.1875 L 22.484375 -24.453125 L 23.015625 -25.09375 C 23.398438 -25.550781 23.796875 -26.019531 24.203125 -26.5 C 24.617188 -26.976562 25.019531 -27.445312 25.40625 -27.90625 C 25.832031 -28.363281 26.238281 -28.769531 26.625 -29.125 C 26.769531 -29.269531 26.945312 -29.34375 27.15625 -29.34375 C 27.40625 -29.34375 27.617188 -29.253906 27.796875 -29.078125 C 28.117188 -28.753906 28.101562 -28.378906 27.75 -27.953125 C 27.570312 -27.773438 27.410156 -27.582031 27.265625 -27.375 C 27.128906 -27.164062 26.972656 -26.972656 26.796875 -26.796875 L 26.6875 -26.6875 C 26.613281 -26.539062 26.523438 -26.40625 26.421875 -26.28125 C 26.316406 -26.15625 26.226562 -26.039062 26.15625 -25.9375 C 25.757812 -25.445312 25.359375 -24.941406 24.953125 -24.421875 C 24.546875 -23.910156 24.128906 -23.40625 23.703125 -22.90625 C 23.566406 -22.726562 23.4375 -22.5625 23.3125 -22.40625 C 23.1875 -22.25 23.050781 -22.082031 22.90625 -21.90625 C 22.875 -21.789062 22.820312 -21.6875 22.75 -21.59375 C 22.675781 -21.507812 22.601562 -21.4375 22.53125 -21.375 C 22.425781 -21.226562 22.320312 -21.09375 22.21875 -20.96875 C 22.113281 -20.84375 22.023438 -20.726562 21.953125 -20.625 C 21.847656 -20.519531 21.75 -20.40625 21.65625 -20.28125 C 21.570312 -20.15625 21.492188 -20.039062 21.421875 -19.9375 C 21.273438 -19.757812 21.128906 -19.570312 20.984375 -19.375 C 20.847656 -19.175781 20.691406 -18.988281 20.515625 -18.8125 C 20.265625 -18.5 20.015625 -18.179688 19.765625 -17.859375 C 19.523438 -17.535156 19.28125 -17.21875 19.03125 -16.90625 C 18.882812 -16.757812 18.738281 -16.597656 18.59375 -16.421875 C 18.457031 -16.242188 18.316406 -16.066406 18.171875 -15.890625 C 17.710938 -15.398438 17.304688 -14.890625 16.953125 -14.359375 C 16.703125 -14.066406 16.472656 -13.757812 16.265625 -13.4375 C 16.054688 -13.125 15.863281 -12.828125 15.6875 -12.546875 C 15.539062 -12.367188 15.40625 -12.191406 15.28125 -12.015625 C 15.15625 -11.835938 15.039062 -11.660156 14.9375 -11.484375 C 14.832031 -11.335938 14.722656 -11.191406 14.609375 -11.046875 C 14.503906 -10.910156 14.398438 -10.769531 14.296875 -10.625 C 14.222656 -10.519531 14.132812 -10.40625 14.03125 -10.28125 C 13.925781 -10.15625 13.835938 -10.039062 13.765625 -9.9375 C 13.691406 -9.832031 13.609375 -9.726562 13.515625 -9.625 C 13.429688 -9.519531 13.351562 -9.410156 13.28125 -9.296875 C 13.070312 -9.015625 12.859375 -8.722656 12.640625 -8.421875 C 12.429688 -8.117188 12.238281 -7.8125 12.0625 -7.5 C 11.707031 -6.851562 11.351562 -6.1875 11 -5.5 C 10.644531 -4.8125 10.363281 -4.09375 10.15625 -3.34375 L 10.15625 -3.296875 C 10.113281 -3.222656 10.078125 -3.132812 10.046875 -3.03125 C 10.015625 -2.925781 10 -2.820312 10 -2.71875 C 9.957031 -2.351562 10.046875 -1.992188 10.265625 -1.640625 C 10.546875 -1.359375 10.863281 -1.21875 11.21875 -1.21875 C 11.25 -1.21875 11.28125 -1.226562 11.3125 -1.25 C 11.351562 -1.269531 11.390625 -1.28125 11.421875 -1.28125 C 11.890625 -1.34375 12.28125 -1.484375 12.59375 -1.703125 C 13.050781 -1.984375 13.535156 -2.289062 14.046875 -2.625 C 14.566406 -2.96875 15.054688 -3.351562 15.515625 -3.78125 C 16.160156 -4.375 16.765625 -4.960938 17.328125 -5.546875 C 17.890625 -6.140625 18.40625 -6.679688 18.875 -7.171875 C 19.082031 -7.421875 19.285156 -7.660156 19.484375 -7.890625 C 19.679688 -8.117188 19.847656 -8.320312 19.984375 -8.5 C 20.160156 -8.75 20.390625 -8.875 20.671875 -8.875 C 20.847656 -8.875 20.992188 -8.804688 21.109375 -8.671875 C 21.285156 -8.554688 21.390625 -8.394531 21.421875 -8.1875 C 21.421875 -8.113281 21.410156 -8.023438 21.390625 -7.921875 C 21.378906 -7.816406 21.335938 -7.707031 21.265625 -7.59375 C 20.984375 -7.238281 20.671875 -6.882812 20.328125 -6.53125 C 19.992188 -6.175781 19.6875 -5.820312 19.40625 -5.46875 C 19.050781 -5.113281 18.6875 -4.742188 18.3125 -4.359375 C 17.9375 -3.972656 17.554688 -3.582031 17.171875 -3.1875 C 16.742188 -2.757812 16.265625 -2.34375 15.734375 -1.9375 C 15.203125 -1.53125 14.617188 -1.113281 13.984375 -0.6875 C 13.734375 -0.582031 13.5 -0.441406 13.28125 -0.265625 L 13.078125 -0.15625 C 12.546875 0.15625 11.890625 0.3125 11.109375 0.3125 Z M 10.53125 -13.390625 C 9.820312 -13.390625 9.144531 -13.265625 8.5 -13.015625 C 7.582031 -12.660156 6.539062 -12.039062 5.375 -11.15625 C 5.019531 -10.875 4.679688 -10.59375 4.359375 -10.3125 C 4.035156 -10.03125 3.734375 -9.765625 3.453125 -9.515625 C 2.847656 -8.910156 2.351562 -8.21875 1.96875 -7.4375 C 1.863281 -7.300781 1.765625 -7.160156 1.671875 -7.015625 C 1.585938 -6.867188 1.488281 -6.707031 1.375 -6.53125 C 1.238281 -6.289062 1.085938 -6.046875 0.921875 -5.796875 C 0.765625 -5.546875 0.617188 -5.28125 0.484375 -5 C 0.304688 -4.570312 0.160156 -4.15625 0.046875 -3.75 C -0.0546875 -3.34375 -0.144531 -2.960938 -0.21875 -2.609375 C -0.25 -2.460938 -0.253906 -2.34375 -0.234375 -2.25 C -0.222656 -2.164062 -0.21875 -2.085938 -0.21875 -2.015625 C -0.175781 -1.984375 -0.15625 -1.945312 -0.15625 -1.90625 C -0.0820312 -1.488281 0.179688 -1.28125 0.640625 -1.28125 C 0.640625 -1.28125 0.644531 -1.28125 0.65625 -1.28125 C 0.675781 -1.28125 0.707031 -1.28125 0.75 -1.28125 C 0.78125 -1.28125 0.800781 -1.28125 0.8125 -1.28125 C 0.832031 -1.28125 0.863281 -1.28125 0.90625 -1.28125 C 1.007812 -1.3125 1.125 -1.332031 1.25 -1.34375 C 1.375 -1.363281 1.503906 -1.394531 1.640625 -1.4375 C 2.210938 -1.6875 2.75 -1.96875 3.25 -2.28125 L 3.34375 -2.34375 C 3.988281 -2.695312 4.554688 -3.066406 5.046875 -3.453125 C 5.753906 -4.085938 6.4375 -4.742188 7.09375 -5.421875 C 7.75 -6.097656 8.414062 -6.789062 9.09375 -7.5 C 9.226562 -7.675781 9.359375 -7.84375 9.484375 -8 C 9.609375 -8.15625 9.742188 -8.304688 9.890625 -8.453125 C 9.960938 -8.554688 10.03125 -8.648438 10.09375 -8.734375 C 10.164062 -8.828125 10.238281 -8.910156 10.3125 -8.984375 C 10.59375 -9.304688 10.863281 -9.625 11.125 -9.9375 C 11.394531 -10.257812 11.65625 -10.578125 11.90625 -10.890625 L 12.59375 -11.75 C 12.769531 -11.925781 12.820312 -12.15625 12.75 -12.4375 C 12.6875 -12.71875 12.53125 -12.894531 12.28125 -12.96875 C 12.132812 -13.039062 12.046875 -13.078125 12.015625 -13.078125 C 11.765625 -13.210938 11.5 -13.300781 11.21875 -13.34375 C 11.113281 -13.375 11 -13.390625 10.875 -13.390625 C 10.75 -13.390625 10.632812 -13.390625 10.53125 -13.390625 Z M 10.53125 -13.390625 "/></g></g></g><g fill="#6d3c36" fill-opacity="1"><g transform="translate(170.240333, 88.935729)"><g/></g></g><g fill="#6d3c36" fill-opacity="1"><g transform="translate(178.212024, 88.935729)"><g><path d="M 8.984375 0.265625 C 7.460938 0.265625 6.097656 -0.175781 4.890625 -1.0625 C 3.648438 -1.914062 2.78125 -3.066406 2.28125 -4.515625 C 2.101562 -5.148438 1.9375 -5.820312 1.78125 -6.53125 C 1.625 -7.238281 1.546875 -7.953125 1.546875 -8.671875 C 1.578125 -10.367188 1.84375 -11.890625 2.34375 -13.234375 C 2.625 -13.984375 2.957031 -14.675781 3.34375 -15.3125 C 3.738281 -15.945312 4.203125 -16.546875 4.734375 -17.109375 C 5.046875 -17.460938 5.367188 -17.769531 5.703125 -18.03125 C 6.046875 -18.300781 6.394531 -18.546875 6.75 -18.765625 C 6.957031 -18.867188 7.1875 -18.957031 7.4375 -19.03125 C 7.6875 -19.101562 7.9375 -19.140625 8.1875 -19.140625 C 8.539062 -19.140625 8.753906 -18.976562 8.828125 -18.65625 C 8.929688 -18.226562 8.878906 -17.945312 8.671875 -17.8125 C 8.453125 -17.664062 8.289062 -17.578125 8.1875 -17.546875 C 6.238281 -16.660156 4.835938 -15.046875 3.984375 -12.703125 C 3.066406 -10.222656 3 -7.78125 3.78125 -5.375 C 4.414062 -3.382812 5.757812 -2.109375 7.8125 -1.546875 C 7.988281 -1.503906 8.175781 -1.472656 8.375 -1.453125 C 8.570312 -1.441406 8.773438 -1.4375 8.984375 -1.4375 C 9.835938 -1.4375 10.707031 -1.679688 11.59375 -2.171875 C 12.65625 -2.847656 13.664062 -3.789062 14.625 -5 C 14.800781 -5.28125 14.976562 -5.550781 15.15625 -5.8125 C 15.332031 -6.082031 15.507812 -6.359375 15.6875 -6.640625 C 16.175781 -7.453125 16.695312 -8.285156 17.25 -9.140625 C 17.800781 -9.992188 18.378906 -10.914062 18.984375 -11.90625 C 19.441406 -12.71875 19.351562 -13.476562 18.71875 -14.1875 C 18.675781 -14.257812 18.617188 -14.332031 18.546875 -14.40625 C 18.472656 -14.476562 18.40625 -14.53125 18.34375 -14.5625 C 18.195312 -14.707031 18.085938 -14.796875 18.015625 -14.828125 C 16.390625 -16.566406 15.398438 -18.851562 15.046875 -21.6875 C 14.898438 -22.570312 15.144531 -23.53125 15.78125 -24.5625 C 16.351562 -25.519531 17.03125 -26.359375 17.8125 -27.078125 C 18.59375 -27.804688 19.476562 -28.4375 20.46875 -28.96875 C 21.070312 -29.289062 21.679688 -29.582031 22.296875 -29.84375 C 22.921875 -30.113281 23.585938 -30.390625 24.296875 -30.671875 L 24.609375 -30.78125 C 26.523438 -31.519531 28.460938 -32.285156 30.421875 -33.078125 C 32.390625 -33.878906 34.316406 -34.757812 36.203125 -35.71875 C 36.378906 -35.789062 36.5625 -35.867188 36.75 -35.953125 C 36.945312 -36.046875 37.117188 -36.144531 37.265625 -36.25 C 37.472656 -36.351562 37.679688 -36.457031 37.890625 -36.5625 C 38.109375 -36.675781 38.320312 -36.785156 38.53125 -36.890625 C 38.675781 -36.960938 38.800781 -37 38.90625 -37 C 39.300781 -37 39.550781 -36.785156 39.65625 -36.359375 C 39.65625 -36.148438 39.632812 -36.007812 39.59375 -35.9375 C 39.5625 -35.832031 39.5 -35.722656 39.40625 -35.609375 C 39.320312 -35.503906 39.226562 -35.414062 39.125 -35.34375 C 38.976562 -35.207031 38.796875 -35.082031 38.578125 -34.96875 C 38.367188 -34.863281 38.160156 -34.757812 37.953125 -34.65625 C 37.921875 -34.625 37.867188 -34.585938 37.796875 -34.546875 C 37.722656 -34.515625 37.648438 -34.476562 37.578125 -34.4375 C 35.773438 -33.445312 34.164062 -32.15625 32.75 -30.5625 C 31.507812 -29.175781 30.410156 -27.726562 29.453125 -26.21875 C 28.492188 -24.71875 27.625 -23.296875 26.84375 -21.953125 C 26.695312 -21.703125 26.5625 -21.460938 26.4375 -21.234375 C 26.320312 -21.003906 26.207031 -20.765625 26.09375 -20.515625 C 25.632812 -19.734375 25.179688 -18.941406 24.734375 -18.140625 C 24.296875 -17.347656 23.828125 -16.582031 23.328125 -15.84375 L 23.28125 -15.734375 C 23.207031 -15.628906 23.132812 -15.503906 23.0625 -15.359375 C 23 -15.222656 22.945312 -15.066406 22.90625 -14.890625 C 22.875 -14.816406 22.859375 -14.628906 22.859375 -14.328125 C 22.859375 -14.023438 22.984375 -13.75 23.234375 -13.5 C 23.515625 -13.289062 23.757812 -13.113281 23.96875 -12.96875 C 24.1875 -12.820312 24.332031 -12.71875 24.40625 -12.65625 C 24.6875 -12.363281 24.71875 -12.039062 24.5 -11.6875 C 24.320312 -11.445312 24.09375 -11.328125 23.8125 -11.328125 C 23.78125 -11.328125 23.765625 -11.328125 23.765625 -11.328125 C 23.765625 -11.328125 23.742188 -11.328125 23.703125 -11.328125 C 23.703125 -11.328125 23.691406 -11.328125 23.671875 -11.328125 C 23.660156 -11.328125 23.65625 -11.328125 23.65625 -11.328125 C 23.65625 -11.328125 23.632812 -11.328125 23.59375 -11.328125 C 22.882812 -11.679688 22.320312 -11.859375 21.90625 -11.859375 C 21.40625 -11.859375 21.019531 -11.710938 20.75 -11.421875 C 20.488281 -11.140625 20.234375 -10.804688 19.984375 -10.421875 C 19.953125 -10.273438 19.847656 -10.097656 19.671875 -9.890625 C 19.390625 -9.429688 19.101562 -8.976562 18.8125 -8.53125 C 18.53125 -8.082031 18.25 -7.628906 17.96875 -7.171875 C 17.644531 -6.710938 17.332031 -6.234375 17.03125 -5.734375 C 16.726562 -5.242188 16.421875 -4.75 16.109375 -4.25 C 15.148438 -2.863281 13.976562 -1.726562 12.59375 -0.84375 C 11.53125 -0.101562 10.328125 0.265625 8.984375 0.265625 Z M 27.484375 -29.921875 C 27.304688 -29.921875 27.164062 -29.90625 27.0625 -29.875 C 26.175781 -29.59375 25.269531 -29.28125 24.34375 -28.9375 C 23.425781 -28.601562 22.523438 -28.1875 21.640625 -27.6875 C 19.867188 -26.800781 18.46875 -25.582031 17.4375 -24.03125 C 17.289062 -23.851562 17.179688 -23.65625 17.109375 -23.4375 C 17.046875 -23.226562 16.976562 -23.035156 16.90625 -22.859375 C 16.863281 -22.753906 16.8125 -22.628906 16.75 -22.484375 C 16.707031 -22.378906 16.6875 -22.238281 16.6875 -22.0625 C 16.726562 -21.957031 16.75 -21.859375 16.75 -21.765625 C 16.75 -21.679688 16.765625 -21.582031 16.796875 -21.46875 C 16.796875 -21.113281 16.847656 -20.78125 16.953125 -20.46875 C 17.347656 -18.695312 18.09375 -17.242188 19.1875 -16.109375 C 19.539062 -15.753906 19.929688 -15.578125 20.359375 -15.578125 C 20.890625 -15.578125 21.316406 -15.84375 21.640625 -16.375 C 21.992188 -16.90625 22.328125 -17.414062 22.640625 -17.90625 C 22.960938 -18.40625 23.265625 -18.90625 23.546875 -19.40625 C 23.796875 -19.832031 24.035156 -20.253906 24.265625 -20.671875 C 24.492188 -21.097656 24.71875 -21.523438 24.9375 -21.953125 C 25.320312 -22.660156 25.71875 -23.378906 26.125 -24.109375 C 26.53125 -24.835938 26.960938 -25.535156 27.421875 -26.203125 C 27.597656 -26.484375 27.785156 -26.785156 27.984375 -27.109375 C 28.179688 -27.429688 28.382812 -27.75 28.59375 -28.0625 C 28.738281 -28.34375 28.773438 -28.628906 28.703125 -28.921875 C 28.703125 -28.921875 28.703125 -28.9375 28.703125 -28.96875 C 28.703125 -29.25 28.585938 -29.476562 28.359375 -29.65625 C 28.128906 -29.832031 27.835938 -29.921875 27.484375 -29.921875 Z M 27.484375 -29.921875 "/></g></g></g><g fill="#6d3c36" fill-opacity="1"><g transform="translate(203.402562, 88.935729)"><g><path d="M 10.625 0.109375 C 10.488281 0.109375 10.335938 0.0703125 10.171875 0 C 10.015625 -0.0703125 9.847656 -0.160156 9.671875 -0.265625 C 9.640625 -0.265625 9.550781 -0.300781 9.40625 -0.375 C 9.019531 -0.90625 8.804688 -1.398438 8.765625 -1.859375 C 8.734375 -2.179688 8.757812 -2.492188 8.84375 -2.796875 C 8.9375 -3.097656 9.054688 -3.425781 9.203125 -3.78125 C 9.234375 -3.84375 9.253906 -3.914062 9.265625 -4 C 9.285156 -4.09375 9.316406 -4.175781 9.359375 -4.25 C 9.460938 -4.46875 9.554688 -4.691406 9.640625 -4.921875 C 9.734375 -5.148438 9.832031 -5.390625 9.9375 -5.640625 C 9.976562 -5.742188 10.03125 -5.863281 10.09375 -6 C 10.09375 -6.039062 10.128906 -6.128906 10.203125 -6.265625 C 10.273438 -6.335938 10.3125 -6.410156 10.3125 -6.484375 C 10.59375 -7.046875 10.847656 -7.582031 11.078125 -8.09375 C 11.304688 -8.613281 11.546875 -9.101562 11.796875 -9.5625 C 11.835938 -9.675781 11.859375 -9.820312 11.859375 -10 C 11.859375 -10 11.859375 -10.015625 11.859375 -10.046875 C 11.921875 -10.328125 11.832031 -10.554688 11.59375 -10.734375 C 11.445312 -10.835938 11.269531 -10.890625 11.0625 -10.890625 C 11.019531 -10.890625 10.988281 -10.890625 10.96875 -10.890625 C 10.957031 -10.890625 10.914062 -10.890625 10.84375 -10.890625 C 10.8125 -10.890625 10.785156 -10.878906 10.765625 -10.859375 C 10.742188 -10.847656 10.71875 -10.84375 10.6875 -10.84375 C 10.644531 -10.8125 10.597656 -10.796875 10.546875 -10.796875 C 10.492188 -10.796875 10.453125 -10.773438 10.421875 -10.734375 C 9.816406 -10.597656 9.253906 -10.378906 8.734375 -10.078125 C 8.222656 -9.773438 7.722656 -9.460938 7.234375 -9.140625 C 6.453125 -8.648438 5.734375 -8.09375 5.078125 -7.46875 C 4.421875 -6.84375 3.773438 -6.234375 3.140625 -5.640625 L 2.984375 -5.46875 C 2.804688 -5.257812 2.597656 -5.054688 2.359375 -4.859375 C 2.128906 -4.671875 1.925781 -4.488281 1.75 -4.3125 C 1.613281 -4.164062 1.457031 -4.019531 1.28125 -3.875 C 1.101562 -3.738281 0.925781 -3.582031 0.75 -3.40625 C 0.601562 -3.257812 0.457031 -3.113281 0.3125 -2.96875 C 0.175781 -2.832031 0.0351562 -2.675781 -0.109375 -2.5 C -0.242188 -2.394531 -0.375 -2.269531 -0.5 -2.125 C -0.625 -1.976562 -0.757812 -1.851562 -0.90625 -1.75 C -0.9375 -1.71875 -0.960938 -1.679688 -0.984375 -1.640625 C -1.003906 -1.609375 -1.046875 -1.578125 -1.109375 -1.546875 C -1.285156 -1.367188 -1.472656 -1.191406 -1.671875 -1.015625 C -1.867188 -0.835938 -2.070312 -0.660156 -2.28125 -0.484375 C -2.601562 -0.265625 -2.957031 -0.15625 -3.34375 -0.15625 C -3.382812 -0.15625 -3.421875 -0.15625 -3.453125 -0.15625 C -3.492188 -0.15625 -3.546875 -0.15625 -3.609375 -0.15625 C -3.828125 -0.226562 -4.003906 -0.351562 -4.140625 -0.53125 C -4.253906 -0.8125 -4.238281 -1.0625 -4.09375 -1.28125 C -3.988281 -1.488281 -3.863281 -1.695312 -3.71875 -1.90625 C -3.582031 -2.125 -3.441406 -2.359375 -3.296875 -2.609375 C -3.222656 -2.742188 -3.132812 -2.882812 -3.03125 -3.03125 C -2.925781 -3.175781 -2.835938 -3.316406 -2.765625 -3.453125 C -2.617188 -3.628906 -2.484375 -3.816406 -2.359375 -4.015625 C -2.234375 -4.210938 -2.101562 -4.398438 -1.96875 -4.578125 C -1.75 -4.890625 -1.523438 -5.203125 -1.296875 -5.515625 C -1.066406 -5.835938 -0.863281 -6.175781 -0.6875 -6.53125 C -0.613281 -6.675781 -0.53125 -6.8125 -0.4375 -6.9375 C -0.351562 -7.0625 -0.257812 -7.191406 -0.15625 -7.328125 C -0.0820312 -7.441406 -0.00390625 -7.550781 0.078125 -7.65625 C 0.171875 -7.757812 0.25 -7.863281 0.3125 -7.96875 C 0.382812 -8.113281 0.472656 -8.25 0.578125 -8.375 C 0.691406 -8.5 0.78125 -8.628906 0.84375 -8.765625 C 1.132812 -9.160156 1.398438 -9.550781 1.640625 -9.9375 C 1.890625 -10.332031 2.101562 -10.757812 2.28125 -11.21875 C 2.425781 -11.46875 2.640625 -11.59375 2.921875 -11.59375 C 3.066406 -11.59375 3.175781 -11.570312 3.25 -11.53125 C 3.632812 -11.394531 3.789062 -11.09375 3.71875 -10.625 C 3.71875 -10.5625 3.703125 -10.492188 3.671875 -10.421875 C 3.671875 -10.347656 3.648438 -10.273438 3.609375 -10.203125 C 3.546875 -9.847656 3.671875 -9.582031 3.984375 -9.40625 C 4.085938 -9.300781 4.226562 -9.25 4.40625 -9.25 C 4.582031 -9.25 4.742188 -9.300781 4.890625 -9.40625 C 4.960938 -9.476562 5.050781 -9.550781 5.15625 -9.625 C 5.257812 -9.695312 5.363281 -9.75 5.46875 -9.78125 C 5.644531 -9.925781 5.835938 -10.054688 6.046875 -10.171875 C 6.265625 -10.296875 6.460938 -10.429688 6.640625 -10.578125 C 7.773438 -11.390625 8.945312 -11.957031 10.15625 -12.28125 C 10.363281 -12.351562 10.566406 -12.414062 10.765625 -12.46875 C 10.960938 -12.519531 11.164062 -12.5625 11.375 -12.59375 C 11.40625 -12.59375 11.445312 -12.59375 11.5 -12.59375 C 11.5625 -12.59375 11.609375 -12.59375 11.640625 -12.59375 C 11.960938 -12.59375 12.300781 -12.515625 12.65625 -12.359375 C 13.007812 -12.203125 13.253906 -11.976562 13.390625 -11.6875 C 13.460938 -11.625 13.5 -11.535156 13.5 -11.421875 C 13.644531 -10.828125 13.609375 -10.207031 13.390625 -9.5625 C 13.179688 -8.894531 12.914062 -8.234375 12.59375 -7.578125 C 12.28125 -6.921875 11.976562 -6.328125 11.6875 -5.796875 C 11.445312 -5.335938 11.242188 -4.859375 11.078125 -4.359375 C 10.921875 -3.859375 10.753906 -3.363281 10.578125 -2.875 C 10.546875 -2.800781 10.492188 -2.65625 10.421875 -2.4375 C 10.316406 -2.257812 10.332031 -2.03125 10.46875 -1.75 C 10.6875 -1.539062 10.898438 -1.4375 11.109375 -1.4375 C 11.140625 -1.4375 11.179688 -1.425781 11.234375 -1.40625 C 11.296875 -1.382812 11.34375 -1.375 11.375 -1.375 C 11.757812 -1.375 12.117188 -1.453125 12.453125 -1.609375 C 12.796875 -1.773438 13.09375 -1.929688 13.34375 -2.078125 L 13.453125 -2.171875 C 13.734375 -2.347656 14.023438 -2.535156 14.328125 -2.734375 C 14.628906 -2.929688 14.90625 -3.15625 15.15625 -3.40625 C 15.46875 -3.71875 15.789062 -4.039062 16.125 -4.375 C 16.46875 -4.71875 16.816406 -5.101562 17.171875 -5.53125 C 17.421875 -5.8125 17.648438 -6.082031 17.859375 -6.34375 C 18.066406 -6.613281 18.28125 -6.875 18.5 -7.125 C 18.601562 -7.257812 18.707031 -7.390625 18.8125 -7.515625 C 18.925781 -7.640625 19.035156 -7.773438 19.140625 -7.921875 C 19.316406 -8.128906 19.53125 -8.234375 19.78125 -8.234375 C 19.957031 -8.234375 20.113281 -8.179688 20.25 -8.078125 C 20.425781 -7.929688 20.53125 -7.757812 20.5625 -7.5625 C 20.601562 -7.375 20.550781 -7.191406 20.40625 -7.015625 C 20.269531 -6.835938 20.128906 -6.648438 19.984375 -6.453125 C 19.847656 -6.265625 19.691406 -6.082031 19.515625 -5.90625 C 19.441406 -5.789062 19.332031 -5.664062 19.1875 -5.53125 C 19.113281 -5.457031 19.039062 -5.375 18.96875 -5.28125 C 18.90625 -5.195312 18.835938 -5.117188 18.765625 -5.046875 C 18.585938 -4.796875 18.410156 -4.566406 18.234375 -4.359375 C 18.054688 -4.148438 17.878906 -3.957031 17.703125 -3.78125 C 17.523438 -3.601562 17.335938 -3.414062 17.140625 -3.21875 C 16.941406 -3.019531 16.753906 -2.832031 16.578125 -2.65625 C 16.472656 -2.582031 16.367188 -2.492188 16.265625 -2.390625 C 16.160156 -2.285156 16.054688 -2.195312 15.953125 -2.125 C 15.703125 -1.875 15.414062 -1.632812 15.09375 -1.40625 C 14.78125 -1.175781 14.460938 -0.957031 14.140625 -0.75 L 13.984375 -0.640625 C 13.234375 -0.210938 12.539062 0.0351562 11.90625 0.109375 C 11.832031 0.109375 11.75 0.109375 11.65625 0.109375 C 11.570312 0.109375 11.476562 0.109375 11.375 0.109375 C 11.269531 0.109375 11.160156 0.109375 11.046875 0.109375 C 10.941406 0.109375 10.820312 0.109375 10.6875 0.109375 C 10.6875 0.109375 10.675781 0.109375 10.65625 0.109375 C 10.632812 0.109375 10.625 0.109375 10.625 0.109375 Z M 10.625 0.109375 "/></g></g></g><g fill="#6d3c36" fill-opacity="1"><g transform="translate(222.800342, 88.935729)"><g><path d="M 10.625 0.109375 C 10.488281 0.109375 10.335938 0.0703125 10.171875 0 C 10.015625 -0.0703125 9.847656 -0.160156 9.671875 -0.265625 C 9.640625 -0.265625 9.550781 -0.300781 9.40625 -0.375 C 9.019531 -0.90625 8.804688 -1.398438 8.765625 -1.859375 C 8.734375 -2.179688 8.757812 -2.492188 8.84375 -2.796875 C 8.9375 -3.097656 9.054688 -3.425781 9.203125 -3.78125 C 9.234375 -3.84375 9.253906 -3.914062 9.265625 -4 C 9.285156 -4.09375 9.316406 -4.175781 9.359375 -4.25 C 9.460938 -4.46875 9.554688 -4.691406 9.640625 -4.921875 C 9.734375 -5.148438 9.832031 -5.390625 9.9375 -5.640625 C 9.976562 -5.742188 10.03125 -5.863281 10.09375 -6 C 10.09375 -6.039062 10.128906 -6.128906 10.203125 -6.265625 C 10.273438 -6.335938 10.3125 -6.410156 10.3125 -6.484375 C 10.59375 -7.046875 10.847656 -7.582031 11.078125 -8.09375 C 11.304688 -8.613281 11.546875 -9.101562 11.796875 -9.5625 C 11.835938 -9.675781 11.859375 -9.820312 11.859375 -10 C 11.859375 -10 11.859375 -10.015625 11.859375 -10.046875 C 11.921875 -10.328125 11.832031 -10.554688 11.59375 -10.734375 C 11.445312 -10.835938 11.269531 -10.890625 11.0625 -10.890625 C 11.019531 -10.890625 10.988281 -10.890625 10.96875 -10.890625 C 10.957031 -10.890625 10.914062 -10.890625 10.84375 -10.890625 C 10.8125 -10.890625 10.785156 -10.878906 10.765625 -10.859375 C 10.742188 -10.847656 10.71875 -10.84375 10.6875 -10.84375 C 10.644531 -10.8125 10.597656 -10.796875 10.546875 -10.796875 C 10.492188 -10.796875 10.453125 -10.773438 10.421875 -10.734375 C 9.816406 -10.597656 9.253906 -10.378906 8.734375 -10.078125 C 8.222656 -9.773438 7.722656 -9.460938 7.234375 -9.140625 C 6.453125 -8.648438 5.734375 -8.09375 5.078125 -7.46875 C 4.421875 -6.84375 3.773438 -6.234375 3.140625 -5.640625 L 2.984375 -5.46875 C 2.804688 -5.257812 2.597656 -5.054688 2.359375 -4.859375 C 2.128906 -4.671875 1.925781 -4.488281 1.75 -4.3125 C 1.613281 -4.164062 1.457031 -4.019531 1.28125 -3.875 C 1.101562 -3.738281 0.925781 -3.582031 0.75 -3.40625 C 0.601562 -3.257812 0.457031 -3.113281 0.3125 -2.96875 C 0.175781 -2.832031 0.0351562 -2.675781 -0.109375 -2.5 C -0.242188 -2.394531 -0.375 -2.269531 -0.5 -2.125 C -0.625 -1.976562 -0.757812 -1.851562 -0.90625 -1.75 C -0.9375 -1.71875 -0.960938 -1.679688 -0.984375 -1.640625 C -1.003906 -1.609375 -1.046875 -1.578125 -1.109375 -1.546875 C -1.285156 -1.367188 -1.472656 -1.191406 -1.671875 -1.015625 C -1.867188 -0.835938 -2.070312 -0.660156 -2.28125 -0.484375 C -2.601562 -0.265625 -2.957031 -0.15625 -3.34375 -0.15625 C -3.382812 -0.15625 -3.421875 -0.15625 -3.453125 -0.15625 C -3.492188 -0.15625 -3.546875 -0.15625 -3.609375 -0.15625 C -3.828125 -0.226562 -4.003906 -0.351562 -4.140625 -0.53125 C -4.253906 -0.8125 -4.238281 -1.0625 -4.09375 -1.28125 C -3.988281 -1.488281 -3.863281 -1.695312 -3.71875 -1.90625 C -3.582031 -2.125 -3.441406 -2.359375 -3.296875 -2.609375 C -3.222656 -2.742188 -3.132812 -2.882812 -3.03125 -3.03125 C -2.925781 -3.175781 -2.835938 -3.316406 -2.765625 -3.453125 C -2.617188 -3.628906 -2.484375 -3.816406 -2.359375 -4.015625 C -2.234375 -4.210938 -2.101562 -4.398438 -1.96875 -4.578125 C -1.75 -4.890625 -1.523438 -5.203125 -1.296875 -5.515625 C -1.066406 -5.835938 -0.863281 -6.175781 -0.6875 -6.53125 C -0.613281 -6.675781 -0.53125 -6.8125 -0.4375 -6.9375 C -0.351562 -7.0625 -0.257812 -7.191406 -0.15625 -7.328125 C -0.0820312 -7.441406 -0.00390625 -7.550781 0.078125 -7.65625 C 0.171875 -7.757812 0.25 -7.863281 0.3125 -7.96875 C 0.382812 -8.113281 0.472656 -8.25 0.578125 -8.375 C 0.691406 -8.5 0.78125 -8.628906 0.84375 -8.765625 C 1.132812 -9.160156 1.398438 -9.550781 1.640625 -9.9375 C 1.890625 -10.332031 2.101562 -10.757812 2.28125 -11.21875 C 2.425781 -11.46875 2.640625 -11.59375 2.921875 -11.59375 C 3.066406 -11.59375 3.175781 -11.570312 3.25 -11.53125 C 3.632812 -11.394531 3.789062 -11.09375 3.71875 -10.625 C 3.71875 -10.5625 3.703125 -10.492188 3.671875 -10.421875 C 3.671875 -10.347656 3.648438 -10.273438 3.609375 -10.203125 C 3.546875 -9.847656 3.671875 -9.582031 3.984375 -9.40625 C 4.085938 -9.300781 4.226562 -9.25 4.40625 -9.25 C 4.582031 -9.25 4.742188 -9.300781 4.890625 -9.40625 C 4.960938 -9.476562 5.050781 -9.550781 5.15625 -9.625 C 5.257812 -9.695312 5.363281 -9.75 5.46875 -9.78125 C 5.644531 -9.925781 5.835938 -10.054688 6.046875 -10.171875 C 6.265625 -10.296875 6.460938 -10.429688 6.640625 -10.578125 C 7.773438 -11.390625 8.945312 -11.957031 10.15625 -12.28125 C 10.363281 -12.351562 10.566406 -12.414062 10.765625 -12.46875 C 10.960938 -12.519531 11.164062 -12.5625 11.375 -12.59375 C 11.40625 -12.59375 11.445312 -12.59375 11.5 -12.59375 C 11.5625 -12.59375 11.609375 -12.59375 11.640625 -12.59375 C 11.960938 -12.59375 12.300781 -12.515625 12.65625 -12.359375 C 13.007812 -12.203125 13.253906 -11.976562 13.390625 -11.6875 C 13.460938 -11.625 13.5 -11.535156 13.5 -11.421875 C 13.644531 -10.828125 13.609375 -10.207031 13.390625 -9.5625 C 13.179688 -8.894531 12.914062 -8.234375 12.59375 -7.578125 C 12.28125 -6.921875 11.976562 -6.328125 11.6875 -5.796875 C 11.445312 -5.335938 11.242188 -4.859375 11.078125 -4.359375 C 10.921875 -3.859375 10.753906 -3.363281 10.578125 -2.875 C 10.546875 -2.800781 10.492188 -2.65625 10.421875 -2.4375 C 10.316406 -2.257812 10.332031 -2.03125 10.46875 -1.75 C 10.6875 -1.539062 10.898438 -1.4375 11.109375 -1.4375 C 11.140625 -1.4375 11.179688 -1.425781 11.234375 -1.40625 C 11.296875 -1.382812 11.34375 -1.375 11.375 -1.375 C 11.757812 -1.375 12.117188 -1.453125 12.453125 -1.609375 C 12.796875 -1.773438 13.09375 -1.929688 13.34375 -2.078125 L 13.453125 -2.171875 C 13.734375 -2.347656 14.023438 -2.535156 14.328125 -2.734375 C 14.628906 -2.929688 14.90625 -3.15625 15.15625 -3.40625 C 15.46875 -3.71875 15.789062 -4.039062 16.125 -4.375 C 16.46875 -4.71875 16.816406 -5.101562 17.171875 -5.53125 C 17.421875 -5.8125 17.648438 -6.082031 17.859375 -6.34375 C 18.066406 -6.613281 18.28125 -6.875 18.5 -7.125 C 18.601562 -7.257812 18.707031 -7.390625 18.8125 -7.515625 C 18.925781 -7.640625 19.035156 -7.773438 19.140625 -7.921875 C 19.316406 -8.128906 19.53125 -8.234375 19.78125 -8.234375 C 19.957031 -8.234375 20.113281 -8.179688 20.25 -8.078125 C 20.425781 -7.929688 20.53125 -7.757812 20.5625 -7.5625 C 20.601562 -7.375 20.550781 -7.191406 20.40625 -7.015625 C 20.269531 -6.835938 20.128906 -6.648438 19.984375 -6.453125 C 19.847656 -6.265625 19.691406 -6.082031 19.515625 -5.90625 C 19.441406 -5.789062 19.332031 -5.664062 19.1875 -5.53125 C 19.113281 -5.457031 19.039062 -5.375 18.96875 -5.28125 C 18.90625 -5.195312 18.835938 -5.117188 18.765625 -5.046875 C 18.585938 -4.796875 18.410156 -4.566406 18.234375 -4.359375 C 18.054688 -4.148438 17.878906 -3.957031 17.703125 -3.78125 C 17.523438 -3.601562 17.335938 -3.414062 17.140625 -3.21875 C 16.941406 -3.019531 16.753906 -2.832031 16.578125 -2.65625 C 16.472656 -2.582031 16.367188 -2.492188 16.265625 -2.390625 C 16.160156 -2.285156 16.054688 -2.195312 15.953125 -2.125 C 15.703125 -1.875 15.414062 -1.632812 15.09375 -1.40625 C 14.78125 -1.175781 14.460938 -0.957031 14.140625 -0.75 L 13.984375 -0.640625 C 13.234375 -0.210938 12.539062 0.0351562 11.90625 0.109375 C 11.832031 0.109375 11.75 0.109375 11.65625 0.109375 C 11.570312 0.109375 11.476562 0.109375 11.375 0.109375 C 11.269531 0.109375 11.160156 0.109375 11.046875 0.109375 C 10.941406 0.109375 10.820312 0.109375 10.6875 0.109375 C 10.6875 0.109375 10.675781 0.109375 10.65625 0.109375 C 10.632812 0.109375 10.625 0.109375 10.625 0.109375 Z M 10.625 0.109375 "/></g></g></g></svg>